STARTFONT 2.1
FONT -DIGITAL-VT220-Bold-I-Normal-136col-40-400-75-75-c-180-iso10646-1
SIZE 40 75 75
FONTBOUNDINGBOX 31 40 -6 -8
STARTPROPERTIES 21
FOUNDRY "DIGITAL"
FAMILY_NAME "vt220"
WEIGHT_NAME "Bold"
RELATIVE_SETWIDTH 50
SLANT "I"
SETWIDTH_NAME "Normal"
ADD_STYLE_NAME "136col"
PIXEL_SIZE 40
POINT_SIZE 400
RESOLUTION_X 75
RESOLUTION_Y 75
SPACING "c"
CHARSET_REGISTRY "ISO10646"
CHARSET_ENCODING "1"
CAP_HEIGHT 28
X_HEIGHT 20
WEIGHT 10
QUAD_WIDTH 18
FONT_ASCENT 32
FONT_DESCENT 8
AVERAGE_WIDTH 180
ENDPROPERTIES
CHARS 237
STARTCHAR U+00FD
ENCODING 253
SWIDTH 1000 0
DWIDTH 18 0
BBX 31 40 -6 -8
BITMAP
00000000
00000000
00000000
00000000
00000000
00000000
00000000
00000000
00000000
00000000
00000000
00000000
00000000
00000000
00000000
00000000
00000000
00000000
00000000
00000000
00000000
00000000
00000000
00000000
00000000
00000000
00000000
00000000
00000000
00000000
00000000
00000000
00000000
00000000
00000000
00000000
00000000
00000000
00000000
00000000
ENDCHAR
STARTCHAR U+25A1
ENCODING 9633
SWIDTH 1000 0
DWIDTH 18 0
BBX 31 40 -6 -8
BITMAP
00000000
00000000
00000000
00000000
001ffff0
001ffff0
003fffe0
003fffe0
003e03e0
007c07c0
007c07c0
007c07c0
00f80f80
00f80f80
00f80f80
01f01f00
01f01f00
01f01f00
03e03e00
03e03e00
03e03e00
07c07c00
07c07c00
07c07c00
0f80f800
0f80f800
0f80f800
1f01f000
1ffff000
1ffff000
3fffe000
3fffe000
00000000
00000000
00000000
00000000
00000000
00000000
00000000
00000000
ENDCHAR
STARTCHAR U+00FE
ENCODING 254
SWIDTH 1000 0
DWIDTH 18 0
BBX 31 40 -6 -8
BITMAP
00000000
00000000
00000000
00000000
001f0000
001f0000
003e0000
003e0000
003e0000
007c0000
007c0000
007c0000
00fffe00
00fffe00
00fffe00
01fffc00
01fc1f00
01fc1f00
03f83e00
03f83e00
03f83e00
07f07c00
07f07c00
07f07c00
0fffe000
0fffe000
0fffe000
1fffc000
1f000000
1f000000
3e000000
3e000000
3e000000
7c000000
7c000000
7c000000
f8000000
f8000000
f8000000
f0000000
ENDCHAR
STARTCHAR U+00FF
ENCODING 255
SWIDTH 1000 0
DWIDTH 18 0
BBX 31 40 -6 -8
BITMAP
00000000
00000000
00000000
00000000
0007c7c0
0007c7c0
000f8f80
000f8f80
00000000
00000000
00000000
00000000
00f83e00
00f83e00
00f83e00
01f07c00
01f07c00
01f07c00
03e0f800
03e0f800
03e3f800
07c7f000
07c7f000
07c7f000
03ffe000
03ffe000
03ffe000
07ffc000
0007c000
0007c000
000f8000
000f8000
3e0f8000
7c1f0000
7c1f0000
7c1f0000
3ff80000
3ff80000
3ff80000
7ff00000
ENDCHAR
STARTCHAR U+00FC
ENCODING 252
SWIDTH 1000 0
DWIDTH 18 0
BBX 31 40 -6 -8
BITMAP
00000000
00000000
00000000
00000000
0007c7c0
0007c7c0
000f8f80
000f8f80
00000000
00000000
00000000
00000000
00f83e00
00f83e00
00f83e00
01f07c00
01f07c00
01f07c00
03e0f800
03e0f800
03e0f800
07c1f000
07c1f000
07c1f000
0f83e000
0f83e000
0f83e000
1f07c000
07fff000
07fff000
0fffe000
0fffe000
00000000
00000000
00000000
00000000
00000000
00000000
00000000
00000000
ENDCHAR
STARTCHAR U+00FB
ENCODING 251
SWIDTH 1000 0
DWIDTH 18 0
BBX 31 40 -6 -8
BITMAP
0000ff80
0000ff80
0000ff80
0001ff00
0007c7c0
0007c7c0
000f8f80
000f8f80
00000000
00000000
00000000
00000000
00f83e00
00f83e00
00f83e00
01f07c00
01f07c00
01f07c00
03e0f800
03e0f800
03e0f800
07c1f000
07c1f000
07c1f000
0f83e000
0f83e000
0f83e000
1f07c000
07fff000
07fff000
0fffe000
0fffe000
00000000
00000000
00000000
00000000
00000000
00000000
00000000
00000000
ENDCHAR
STARTCHAR U+00FA
ENCODING 250
SWIDTH 1000 0
DWIDTH 18 0
BBX 31 40 -6 -8
BITMAP
00000000
00000000
00000000
00000000
00007f00
00007f00
0000fe00
0000fe00
000fe000
001fc000
001fc000
001fc000
00f83e00
00f83e00
00f83e00
01f07c00
01f07c00
01f07c00
03e0f800
03e0f800
03e0f800
07c1f000
07c1f000
07c1f000
0f83e000
0f83e000
0f83e000
1f07c000
07fff000
07fff000
0fffe000
0fffe000
00000000
00000000
00000000
00000000
00000000
00000000
00000000
00000000
ENDCHAR
STARTCHAR U+00F9
ENCODING 249
SWIDTH 1000 0
DWIDTH 18 0
BBX 31 40 -6 -8
BITMAP
00000000
00000000
00000000
00000000
0007f000
0007f000
000fe000
000fe000
0000fe00
0001fc00
0001fc00
0001fc00
00f83e00
00f83e00
00f83e00
01f07c00
01f07c00
01f07c00
03e0f800
03e0f800
03e0f800
07c1f000
07c1f000
07c1f000
0f83e000
0f83e000
0f83e000
1f07c000
07fff000
07fff000
0fffe000
0fffe000
00000000
00000000
00000000
00000000
00000000
00000000
00000000
00000000
ENDCHAR
STARTCHAR U+00F8
ENCODING 248
SWIDTH 1000 0
DWIDTH 18 0
BBX 31 40 -6 -8
BITMAP
00000000
00000000
00000000
00000000
00000000
00000000
00000000
00000000
000003e0
000007c0
000007c0
000007c0
003ffe00
003ffe00
003ffe00
007ffc00
01f1ff00
01f1ff00
03e3fe00
03e3fe00
03efbe00
07df7c00
07df7c00
07df7c00
0ff8f800
0ff8f800
0ff8f800
1ff1f000
07ffc000
07ffc000
0fff8000
0fff8000
3e000000
7c000000
7c000000
7c000000
00000000
00000000
00000000
00000000
ENDCHAR
STARTCHAR U+0153
ENCODING 339
SWIDTH 1000 0
DWIDTH 18 0
BBX 31 40 -6 -8
BITMAP
00000000
00000000
00000000
00000000
00000000
00000000
00000000
00000000
00000000
00000000
00000000
00000000
003ffe00
003ffe00
003ffe00
007ffc00
01f7df00
01f7df00
03efbe00
03efbe00
03effe00
07dffc00
07dffc00
07dffc00
0fbe0000
0fbe0000
0fbe0000
1f7c0000
07fff000
07fff000
0fffe000
0fffe000
00000000
00000000
00000000
00000000
00000000
00000000
00000000
00000000
ENDCHAR
STARTCHAR U+00F6
ENCODING 246
SWIDTH 1000 0
DWIDTH 18 0
BBX 31 40 -6 -8
BITMAP
00000000
00000000
00000000
00000000
0007c7c0
0007c7c0
000f8f80
000f8f80
00000000
00000000
00000000
00000000
003ffe00
003ffe00
003ffe00
007ffc00
01f01f00
01f01f00
03e03e00
03e03e00
03e03e00
07c07c00
07c07c00
07c07c00
0f80f800
0f80f800
0f80f800
1f01f000
07ffc000
07ffc000
0fff8000
0fff8000
00000000
00000000
00000000
00000000
00000000
00000000
00000000
00000000
ENDCHAR
STARTCHAR U+00F5
ENCODING 245
SWIDTH 1000 0
DWIDTH 18 0
BBX 31 40 -6 -8
BITMAP
0003fbe0
0003fbe0
0003fbe0
0007f7c0
001f7f00
001f7f00
003efe00
003efe00
00000000
00000000
00000000
00000000
003ffe00
003ffe00
003ffe00
007ffc00
01f01f00
01f01f00
03e03e00
03e03e00
03e03e00
07c07c00
07c07c00
07c07c00
0f80f800
0f80f800
0f80f800
1f01f000
07ffc000
07ffc000
0fff8000
0fff8000
00000000
00000000
00000000
00000000
00000000
00000000
00000000
00000000
ENDCHAR
STARTCHAR U+00F4
ENCODING 244
SWIDTH 1000 0
DWIDTH 18 0
BBX 31 40 -6 -8
BITMAP
0000ff80
0000ff80
0000ff80
0001ff00
0007c7c0
0007c7c0
000f8f80
000f8f80
00000000
00000000
00000000
00000000
003ffe00
003ffe00
003ffe00
007ffc00
01f01f00
01f01f00
03e03e00
03e03e00
03e03e00
07c07c00
07c07c00
07c07c00
0f80f800
0f80f800
0f80f800
1f01f000
07ffc000
07ffc000
0fff8000
0fff8000
00000000
00000000
00000000
00000000
00000000
00000000
00000000
00000000
ENDCHAR
STARTCHAR U+00F3
ENCODING 243
SWIDTH 1000 0
DWIDTH 18 0
BBX 31 40 -6 -8
BITMAP
00000000
00000000
00000000
00000000
00007f00
00007f00
0000fe00
0000fe00
000fe000
001fc000
001fc000
001fc000
003ffe00
003ffe00
003ffe00
007ffc00
01f01f00
01f01f00
03e03e00
03e03e00
03e03e00
07c07c00
07c07c00
07c07c00
0f80f800
0f80f800
0f80f800
1f01f000
07ffc000
07ffc000
0fff8000
0fff8000
00000000
00000000
00000000
00000000
00000000
00000000
00000000
00000000
ENDCHAR
STARTCHAR U+00F2
ENCODING 242
SWIDTH 1000 0
DWIDTH 18 0
BBX 31 40 -6 -8
BITMAP
00000000
00000000
00000000
00000000
0001fc00
0001fc00
0003f800
0003f800
00003f80
00007f00
00007f00
00007f00
003ffe00
003ffe00
003ffe00
007ffc00
01f01f00
01f01f00
03e03e00
03e03e00
03e03e00
07c07c00
07c07c00
07c07c00
0f80f800
0f80f800
0f80f800
1f01f000
07ffc000
07ffc000
0fff8000
0fff8000
00000000
00000000
00000000
00000000
00000000
00000000
00000000
00000000
ENDCHAR
STARTCHAR U+00F1
ENCODING 241
SWIDTH 1000 0
DWIDTH 18 0
BBX 31 40 -6 -8
BITMAP
0003fbe0
0003fbe0
0003fbe0
0007f7c0
001f7f00
001f7f00
003efe00
003efe00
00000000
00000000
00000000
00000000
00fffe00
00fffe00
00fffe00
01fffc00
01fc1f00
01fc1f00
03f83e00
03f83e00
03e03e00
07c07c00
07c07c00
07c07c00
0f80f800
0f80f800
0f80f800
1f01f000
1f01f000
1f01f000
3e03e000
3e03e000
00000000
00000000
00000000
00000000
00000000
00000000
00000000
00000000
ENDCHAR
STARTCHAR U+00F0
ENCODING 240
SWIDTH 1000 0
DWIDTH 18 0
BBX 31 40 -6 -8
BITMAP
00003ef8
00003ef8
00003ef8
00007df0
00001fc0
00001fc0
00003f80
00003f80
0000fbe0
0001f7c0
0001f7c0
0001f7c0
003fff80
003fff80
003fff80
007fff00
01f07f00
01f07f00
03e0fe00
03e0fe00
03e03e00
07c07c00
07c07c00
07c07c00
0f83e000
0f83e000
0f83e000
1f07c000
07ff0000
07ff0000
0ffe0000
0ffe0000
00000000
00000000
00000000
00000000
00000000
00000000
00000000
00000000
ENDCHAR
STARTCHAR U+00EF
ENCODING 239
SWIDTH 1000 0
DWIDTH 18 0
BBX 31 40 -6 -8
BITMAP
00000000
00000000
00000000
00000000
0007c7c0
0007c7c0
000f8f80
000f8f80
00000000
00000000
00000000
00000000
000fe000
000fe000
000fe000
001fc000
0007c000
0007c000
000f8000
000f8000
000f8000
001f0000
001f0000
001f0000
003e0000
003e0000
003e0000
007c0000
07ffc000
07ffc000
0fff8000
0fff8000
00000000
00000000
00000000
00000000
00000000
00000000
00000000
00000000
ENDCHAR
STARTCHAR U+00EE
ENCODING 238
SWIDTH 1000 0
DWIDTH 18 0
BBX 31 40 -6 -8
BITMAP
0000ff80
0000ff80
0000ff80
0001ff00
0007c7c0
0007c7c0
000f8f80
000f8f80
00000000
00000000
00000000
00000000
000fe000
000fe000
000fe000
001fc000
0007c000
0007c000
000f8000
000f8000
000f8000
001f0000
001f0000
001f0000
003e0000
003e0000
003e0000
007c0000
07ffc000
07ffc000
0fff8000
0fff8000
00000000
00000000
00000000
00000000
00000000
00000000
00000000
00000000
ENDCHAR
STARTCHAR U+00ED
ENCODING 237
SWIDTH 1000 0
DWIDTH 18 0
BBX 31 40 -6 -8
BITMAP
00000000
00000000
00000000
00000000
00007f00
00007f00
0000fe00
0000fe00
000fe000
001fc000
001fc000
001fc000
000fe000
000fe000
000fe000
001fc000
0007c000
0007c000
000f8000
000f8000
000f8000
001f0000
001f0000
001f0000
003e0000
003e0000
003e0000
007c0000
07ffc000
07ffc000
0fff8000
0fff8000
00000000
00000000
00000000
00000000
00000000
00000000
00000000
00000000
ENDCHAR
STARTCHAR U+00EC
ENCODING 236
SWIDTH 1000 0
DWIDTH 18 0
BBX 31 40 -6 -8
BITMAP
00000000
00000000
00000000
00000000
0007f000
0007f000
000fe000
000fe000
0000fe00
0001fc00
0001fc00
0001fc00
000fe000
000fe000
000fe000
001fc000
0007c000
0007c000
000f8000
000f8000
000f8000
001f0000
001f0000
001f0000
003e0000
003e0000
003e0000
007c0000
07ffc000
07ffc000
0fff8000
0fff8000
00000000
00000000
00000000
00000000
00000000
00000000
00000000
00000000
ENDCHAR
STARTCHAR U+00EB
ENCODING 235
SWIDTH 1000 0
DWIDTH 18 0
BBX 31 40 -6 -8
BITMAP
00000000
00000000
00000000
00000000
0007c7c0
0007c7c0
000f8f80
000f8f80
00000000
00000000
00000000
00000000
003ffe00
003ffe00
003ffe00
007ffc00
01f01f00
01f01f00
03e03e00
03e03e00
03fffe00
07fffc00
07fffc00
07fffc00
0f800000
0f800000
0f800000
1f000000
07ffc000
07ffc000
0fff8000
0fff8000
00000000
00000000
00000000
00000000
00000000
00000000
00000000
00000000
ENDCHAR
STARTCHAR U+00EA
ENCODING 234
SWIDTH 1000 0
DWIDTH 18 0
BBX 31 40 -6 -8
BITMAP
0000ff80
0000ff80
0000ff80
0001ff00
0007c7c0
0007c7c0
000f8f80
000f8f80
00000000
00000000
00000000
00000000
003ffe00
003ffe00
003ffe00
007ffc00
01f01f00
01f01f00
03e03e00
03e03e00
03fffe00
07fffc00
07fffc00
07fffc00
0f800000
0f800000
0f800000
1f000000
07ffc000
07ffc000
0fff8000
0fff8000
00000000
00000000
00000000
00000000
00000000
00000000
00000000
00000000
ENDCHAR
STARTCHAR U+00E9
ENCODING 233
SWIDTH 1000 0
DWIDTH 18 0
BBX 31 40 -6 -8
BITMAP
00000000
00000000
00000000
00000000
00007f00
00007f00
0000fe00
0000fe00
000fe000
001fc000
001fc000
001fc000
003ffe00
003ffe00
003ffe00
007ffc00
01f01f00
01f01f00
03e03e00
03e03e00
03fffe00
07fffc00
07fffc00
07fffc00
0f800000
0f800000
0f800000
1f000000
07ffc000
07ffc000
0fff8000
0fff8000
00000000
00000000
00000000
00000000
00000000
00000000
00000000
00000000
ENDCHAR
STARTCHAR U+00E8
ENCODING 232
SWIDTH 1000 0
DWIDTH 18 0
BBX 31 40 -6 -8
BITMAP
00000000
00000000
00000000
00000000
0001fc00
0001fc00
0003f800
0003f800
00003f80
00007f00
00007f00
00007f00
003ffe00
003ffe00
003ffe00
007ffc00
01f01f00
01f01f00
03e03e00
03e03e00
03fffe00
07fffc00
07fffc00
07fffc00
0f800000
0f800000
0f800000
1f000000
07ffc000
07ffc000
0fff8000
0fff8000
00000000
00000000
00000000
00000000
00000000
00000000
00000000
00000000
ENDCHAR
STARTCHAR U+00E7
ENCODING 231
SWIDTH 1000 0
DWIDTH 18 0
BBX 31 40 -6 -8
BITMAP
00000000
00000000
00000000
00000000
00000000
00000000
00000000
00000000
00000000
00000000
00000000
00000000
003ffe00
003ffe00
003ffe00
007ffc00
01f01f00
01f01f00
03e03e00
03e03e00
03e00000
07c00000
07c00000
07c00000
0f80f800
0f80f800
0f80f800
1f01f000
07ffc000
07ffc000
0fff8000
0fff8000
003e0000
007c0000
007c0000
007c0000
0ff80000
0ff80000
0ff80000
1ff00000
ENDCHAR
STARTCHAR U+00E6
ENCODING 230
SWIDTH 1000 0
DWIDTH 18 0
BBX 31 40 -6 -8
BITMAP
00000000
00000000
00000000
00000000
00000000
00000000
00000000
00000000
00000000
00000000
00000000
00000000
003ffe00
003ffe00
003ffe00
007ffc00
0007df00
0007df00
000fbe00
000fbe00
00fffe00
01fffc00
01fffc00
01fffc00
0fbe0000
0fbe0000
0fbe0000
1f7c0000
07fff000
07fff000
0fffe000
0fffe000
00000000
00000000
00000000
00000000
00000000
00000000
00000000
00000000
ENDCHAR
STARTCHAR U+00E5
ENCODING 229
SWIDTH 1000 0
DWIDTH 18 0
BBX 31 40 -6 -8
BITMAP
0000ff80
0000ff80
0000ff80
0001ff00
0007c7c0
0007c7c0
000f8f80
000f8f80
0003fe00
0007fc00
0007fc00
0007fc00
003ffe00
003ffe00
003ffe00
007ffc00
00001f00
00001f00
00003e00
00003e00
00fffe00
01fffc00
01fffc00
01fffc00
0f83f800
0f83f800
0f83f800
1f07f000
07fff000
07fff000
0fffe000
0fffe000
00000000
00000000
00000000
00000000
00000000
00000000
00000000
00000000
ENDCHAR
STARTCHAR U+00E4
ENCODING 228
SWIDTH 1000 0
DWIDTH 18 0
BBX 31 40 -6 -8
BITMAP
00000000
00000000
00000000
00000000
0007c7c0
0007c7c0
000f8f80
000f8f80
00000000
00000000
00000000
00000000
003ffe00
003ffe00
003ffe00
007ffc00
00001f00
00001f00
00003e00
00003e00
00fffe00
01fffc00
01fffc00
01fffc00
0f83f800
0f83f800
0f83f800
1f07f000
07fff000
07fff000
0fffe000
0fffe000
00000000
00000000
00000000
00000000
00000000
00000000
00000000
00000000
ENDCHAR
STARTCHAR U+00E3
ENCODING 227
SWIDTH 1000 0
DWIDTH 18 0
BBX 31 40 -6 -8
BITMAP
0000fef8
0000fef8
0000fef8
0001fdf0
0007dfc0
0007dfc0
000fbf80
000fbf80
00000000
00000000
00000000
00000000
003ffe00
003ffe00
003ffe00
007ffc00
00001f00
00001f00
00003e00
00003e00
00fffe00
01fffc00
01fffc00
01fffc00
0f83f800
0f83f800
0f83f800
1f07f000
07fff000
07fff000
0fffe000
0fffe000
00000000
00000000
00000000
00000000
00000000
00000000
00000000
00000000
ENDCHAR
STARTCHAR U+00E2
ENCODING 226
SWIDTH 1000 0
DWIDTH 18 0
BBX 31 40 -6 -8
BITMAP
0000ff80
0000ff80
0000ff80
0001ff00
0007c7c0
0007c7c0
000f8f80
000f8f80
00000000
00000000
00000000
00000000
003ffe00
003ffe00
003ffe00
007ffc00
00001f00
00001f00
00003e00
00003e00
00fffe00
01fffc00
01fffc00
01fffc00
0f83f800
0f83f800
0f83f800
1f07f000
07fff000
07fff000
0fffe000
0fffe000
00000000
00000000
00000000
00000000
00000000
00000000
00000000
00000000
ENDCHAR
STARTCHAR U+00E1
ENCODING 225
SWIDTH 1000 0
DWIDTH 18 0
BBX 31 40 -6 -8
BITMAP
00000000
00000000
00000000
00000000
00007f00
00007f00
0000fe00
0000fe00
000fe000
001fc000
001fc000
001fc000
003ffe00
003ffe00
003ffe00
007ffc00
00001f00
00001f00
00003e00
00003e00
00fffe00
01fffc00
01fffc00
01fffc00
0f83f800
0f83f800
0f83f800
1f07f000
07fff000
07fff000
0fffe000
0fffe000
00000000
00000000
00000000
00000000
00000000
00000000
00000000
00000000
ENDCHAR
STARTCHAR U+00E0
ENCODING 224
SWIDTH 1000 0
DWIDTH 18 0
BBX 31 40 -6 -8
BITMAP
00000000
00000000
00000000
00000000
0001fc00
0001fc00
0003f800
0003f800
00003f80
00007f00
00007f00
00007f00
003ffe00
003ffe00
003ffe00
007ffc00
00001f00
00001f00
00003e00
00003e00
00fffe00
01fffc00
01fffc00
01fffc00
0f83f800
0f83f800
0f83f800
1f07f000
07fff000
07fff000
0fffe000
0fffe000
00000000
00000000
00000000
00000000
00000000
00000000
00000000
00000000
ENDCHAR
STARTCHAR U+00DF
ENCODING 223
SWIDTH 1000 0
DWIDTH 18 0
BBX 31 40 -6 -8
BITMAP
00000000
00000000
00000000
00000000
0001ff00
0001ff00
0003fe00
0003fe00
000f8f80
001f1f00
001f1f00
001f1f00
00f83e00
00f83e00
00f83e00
01f07c00
01fff000
01fff000
03ffe000
03ffe000
03e0f800
07c1f000
07c1f000
07c1f000
0ff8f800
0ff8f800
0ff8f800
1ff1f000
1f7fc000
1f7fc000
3eff8000
3eff8000
3e000000
7c000000
7c000000
7c000000
00000000
00000000
00000000
00000000
ENDCHAR
STARTCHAR U+00DE
ENCODING 222
SWIDTH 1000 0
DWIDTH 18 0
BBX 31 40 -6 -8
BITMAP
00000000
00000000
00000000
00000000
001fc000
001fc000
003f8000
003f8000
000fff80
001fff00
001fff00
001fff00
003e0f80
003e0f80
003e0f80
007c1f00
007c1f00
007c1f00
00f83e00
00f83e00
00f83e00
01f07c00
01f07c00
01f07c00
03ffe000
03ffe000
03ffe000
07ffc000
1fc00000
1fc00000
3f800000
3f800000
00000000
00000000
00000000
00000000
00000000
00000000
00000000
00000000
ENDCHAR
STARTCHAR U+0178
ENCODING 376
SWIDTH 1000 0
DWIDTH 18 0
BBX 31 40 -6 -8
BITMAP
0003e3e0
0003e3e0
0003e3e0
0007c7c0
00000000
00000000
00000000
00000000
003e03e0
007c07c0
007c07c0
007c07c0
003e3e00
003e3e00
003e3e00
007c7c00
001ff000
001ff000
003fe000
003fe000
000f8000
001f0000
001f0000
001f0000
003e0000
003e0000
003e0000
007c0000
007c0000
007c0000
00f80000
00f80000
00000000
00000000
00000000
00000000
00000000
00000000
00000000
00000000
ENDCHAR
STARTCHAR U+00DC
ENCODING 220
SWIDTH 1000 0
DWIDTH 18 0
BBX 31 40 -6 -8
BITMAP
0003e3e0
0003e3e0
0003e3e0
0007c7c0
00000000
00000000
00000000
00000000
003e03e0
007c07c0
007c07c0
007c07c0
00f80f80
00f80f80
00f80f80
01f01f00
01f01f00
01f01f00
03e03e00
03e03e00
03e03e00
07c07c00
07c07c00
07c07c00
0f80f800
0f80f800
0f80f800
1f01f000
07ffc000
07ffc000
0fff8000
0fff8000
00000000
00000000
00000000
00000000
00000000
00000000
00000000
00000000
ENDCHAR
STARTCHAR U+00DB
ENCODING 219
SWIDTH 1000 0
DWIDTH 18 0
BBX 31 40 -6 -8
BITMAP
00003e00
00003e00
00003e00
00007c00
0001ff00
0001ff00
0003fe00
0003fe00
003e06e0
007c07c0
007c07c0
007c07c0
00f80f80
00f80f80
00f80f80
01f01f00
01f01f00
01f01f00
03e03e00
03e03e00
03e03e00
07c07c00
07c07c00
07c07c00
0f80f800
0f80f800
0f80f800
1f01f000
07ffc000
07ffc000
0fff8000
0fff8000
00000000
00000000
00000000
00000000
00000000
00000000
00000000
00000000
ENDCHAR
STARTCHAR U+00DA
ENCODING 218
SWIDTH 1000 0
DWIDTH 18 0
BBX 31 40 -6 -8
BITMAP
00000fe0
00000fe0
00000fe0
00001fc0
0001fc00
0001fc00
0003f800
0003f800
003e03e0
007c07c0
007c07c0
007c07c0
00f80f80
00f80f80
00f80f80
01f01f00
01f01f00
01f01f00
03e03e00
03e03e00
03e03e00
07c07c00
07c07c00
07c07c00
0f80f800
0f80f800
0f80f800
1f01f000
07ffc000
07ffc000
0fff8000
0fff8000
00000000
00000000
00000000
00000000
00000000
00000000
00000000
00000000
ENDCHAR
STARTCHAR U+00D9
ENCODING 217
SWIDTH 1000 0
DWIDTH 18 0
BBX 31 40 -6 -8
BITMAP
0003f800
0003f800
0003f800
0007f000
00007f00
00007f00
0000fe00
0000fe00
003e06e0
007c07c0
007c07c0
007c07c0
00f80f80
00f80f80
00f80f80
01f01f00
01f01f00
01f01f00
03e03e00
03e03e00
03e03e00
07c07c00
07c07c00
07c07c00
0f80f800
0f80f800
0f80f800
1f01f000
07ffc000
07ffc000
0fff8000
0fff8000
00000000
00000000
00000000
00000000
00000000
00000000
00000000
00000000
ENDCHAR
STARTCHAR U+00D8
ENCODING 216
SWIDTH 1000 0
DWIDTH 18 0
BBX 31 40 -6 -8
BITMAP
000000f8
000000f8
000000f8
000001f0
0007ffc0
0007ffc0
000fff80
000fff80
003e0fe0
007c1fc0
007c1fc0
007c1fc0
00f8ff80
00f8ff80
00f8ff80
01f1ff00
01f7df00
01f7df00
03efbe00
03efbe00
03fe3e00
07fc7c00
07fc7c00
07fc7c00
0fe0f800
0fe0f800
0fe0f800
1fc1f000
07ffc000
07ffc000
0fff8000
0fff8000
3e000000
7c000000
7c000000
7c000000
00000000
00000000
00000000
00000000
ENDCHAR
STARTCHAR U+0152
ENCODING 338
SWIDTH 1000 0
DWIDTH 18 0
BBX 31 40 -6 -8
BITMAP
00000000
00000000
00000000
00000000
0007fff0
0007fff0
000fffe0
000fffe0
003ef800
007df000
007df000
007df000
00fbe000
00fbe000
00fbe000
01f7c000
01f7fc00
01f7fc00
03eff800
03eff800
03ef8000
07df0000
07df0000
07df0000
0fbe0000
0fbe0000
0fbe0000
1f7c0000
07fff000
07fff000
0fffe000
0fffe000
00000000
00000000
00000000
00000000
00000000
00000000
00000000
00000000
ENDCHAR
STARTCHAR U+00D6
ENCODING 214
SWIDTH 1000 0
DWIDTH 18 0
BBX 31 40 -6 -8
BITMAP
0003e3e0
0003e3e0
0003e3e0
0007c7c0
00000000
00000000
00000000
00000000
000fff80
001fff00
001fff00
001fff00
00f80f80
00f80f80
00f80f80
01f01f00
01f01f00
01f01f00
03e03e00
03e03e00
03e03e00
07c07c00
07c07c00
07c07c00
0f80f800
0f80f800
0f80f800
1f01f000
07ffc000
07ffc000
0fff8000
0fff8000
00000000
00000000
00000000
00000000
00000000
00000000
00000000
00000000
ENDCHAR
STARTCHAR U+00D5
ENCODING 213
SWIDTH 1000 0
DWIDTH 18 0
BBX 31 40 -6 -8
BITMAP
0003fbe0
0003fbe0
0003fbe0
0007f7c0
001f7f00
001f7f00
003efe00
003efe00
000fff80
001fff00
001fff00
001fff00
00f80f80
00f80f80
00f80f80
01f01f00
01f01f00
01f01f00
03e03e00
03e03e00
03e03e00
07c07c00
07c07c00
07c07c00
0f80f800
0f80f800
0f80f800
1f01f000
07ffc000
07ffc000
0fff8000
0fff8000
00000000
00000000
00000000
00000000
00000000
00000000
00000000
00000000
ENDCHAR
STARTCHAR U+00D4
ENCODING 212
SWIDTH 1000 0
DWIDTH 18 0
BBX 31 40 -6 -8
BITMAP
0000ff80
0000ff80
0000ff80
0001ff00
0007c7c0
0007c7c0
000f8f80
000f8f80
000fff80
001fff00
001fff00
001fff00
00f80f80
00f80f80
00f80f80
01f01f00
01f01f00
01f01f00
03e03e00
03e03e00
03e03e00
07c07c00
07c07c00
07c07c00
0f80f800
0f80f800
0f80f800
1f01f000
07ffc000
07ffc000
0fff8000
0fff8000
00000000
00000000
00000000
00000000
00000000
00000000
00000000
00000000
ENDCHAR
STARTCHAR U+00D3
ENCODING 211
SWIDTH 1000 0
DWIDTH 18 0
BBX 31 40 -6 -8
BITMAP
00003f80
00003f80
00003f80
00007f00
0007f000
0007f000
000fe000
000fe000
000fff80
001fff00
001fff00
001fff00
00f80f80
00f80f80
00f80f80
01f01f00
01f01f00
01f01f00
03e03e00
03e03e00
03e03e00
07c07c00
07c07c00
07c07c00
0f80f800
0f80f800
0f80f800
1f01f000
07ffc000
07ffc000
0fff8000
0fff8000
00000000
00000000
00000000
00000000
00000000
00000000
00000000
00000000
ENDCHAR
STARTCHAR U+00D2
ENCODING 210
SWIDTH 1000 0
DWIDTH 18 0
BBX 31 40 -6 -8
BITMAP
0000fe00
0000fe00
0000fe00
0001fc00
00001fc0
00001fc0
00003f80
00003f80
000fff80
001fff00
001fff00
001fff00
00f80f80
00f80f80
00f80f80
01f01f00
01f01f00
01f01f00
03e03e00
03e03e00
03e03e00
07c07c00
07c07c00
07c07c00
0f80f800
0f80f800
0f80f800
1f01f000
07ffc000
07ffc000
0fff8000
0fff8000
00000000
00000000
00000000
00000000
00000000
00000000
00000000
00000000
ENDCHAR
STARTCHAR U+00D1
ENCODING 209
SWIDTH 1000 0
DWIDTH 18 0
BBX 31 40 -6 -8
BITMAP
0000fef8
0000fef8
0000fef8
0001fdf0
0007dfc0
0007dfc0
000fbf80
000fbf80
003f83e0
007f07c0
007f07c0
007f07c0
00ff8f80
00ff8f80
00ff8f80
01ff1f00
01f7df00
01f7df00
03efbe00
03efbe00
03e3fe00
07c7fc00
07c7fc00
07c7fc00
0f83f800
0f83f800
0f83f800
1f07f000
1f01f000
1f01f000
3e03e000
3e03e000
00000000
00000000
00000000
00000000
00000000
00000000
00000000
00000000
ENDCHAR
STARTCHAR U+00D0
ENCODING 208
SWIDTH 1000 0
DWIDTH 18 0
BBX 31 40 -6 -8
BITMAP
00000000
00000000
00000000
00000000
001fff00
001fff00
003ffe00
003ffe00
000f8f80
001f1f00
001f1f00
001f1f00
003e0f80
003e0f80
003e0f80
007c1f00
01ffdf00
01ffdf00
03ffbe00
03ffbe00
00f83e00
01f07c00
01f07c00
01f07c00
03e3e000
03e3e000
03e3e000
07c7c000
1fff0000
1fff0000
3ffe0000
3ffe0000
00000000
00000000
00000000
00000000
00000000
00000000
00000000
00000000
ENDCHAR
STARTCHAR U+00CF
ENCODING 207
SWIDTH 1000 0
DWIDTH 18 0
BBX 31 40 -6 -8
BITMAP
0003e3e0
0003e3e0
0003e3e0
0007c7c0
00000000
00000000
00000000
00000000
000fff80
001fff00
001fff00
001fff00
0003e000
0003e000
0003e000
0007c000
0007c000
0007c000
000f8000
000f8000
000f8000
001f0000
001f0000
001f0000
003e0000
003e0000
003e0000
007c0000
07ffc000
07ffc000
0fff8000
0fff8000
00000000
00000000
00000000
00000000
00000000
00000000
00000000
00000000
ENDCHAR
STARTCHAR U+00CE
ENCODING 206
SWIDTH 1000 0
DWIDTH 18 0
BBX 31 40 -6 -8
BITMAP
0000ff80
0000ff80
0000ff80
0001ff00
0007c7c0
0007c7c0
000f8f80
000f8f80
000fff80
001fff00
001fff00
001fff00
0003e000
0003e000
0003e000
0007c000
0007c000
0007c000
000f8000
000f8000
000f8000
001f0000
001f0000
001f0000
003e0000
003e0000
003e0000
007c0000
07ffc000
07ffc000
0fff8000
0fff8000
00000000
00000000
00000000
00000000
00000000
00000000
00000000
00000000
ENDCHAR
STARTCHAR U+00CD
ENCODING 205
SWIDTH 1000 0
DWIDTH 18 0
BBX 31 40 -6 -8
BITMAP
00003f80
00003f80
00003f80
00007f00
0007f000
0007f000
000fe000
000fe000
000fff80
001fff00
001fff00
001fff00
0003e000
0003e000
0003e000
0007c000
0007c000
0007c000
000f8000
000f8000
000f8000
001f0000
001f0000
001f0000
003e0000
003e0000
003e0000
007c0000
07ffc000
07ffc000
0fff8000
0fff8000
00000000
00000000
00000000
00000000
00000000
00000000
00000000
00000000
ENDCHAR
STARTCHAR U+00CC
ENCODING 204
SWIDTH 1000 0
DWIDTH 18 0
BBX 31 40 -6 -8
BITMAP
0000fe00
0000fe00
0000fe00
0001fc00
00001fc0
00001fc0
00003f80
00003f80
000fff80
001fff00
001fff00
001fff00
0003e000
0003e000
0003e000
0007c000
0007c000
0007c000
000f8000
000f8000
000f8000
001f0000
001f0000
001f0000
003e0000
003e0000
003e0000
007c0000
07ffc000
07ffc000
0fff8000
0fff8000
00000000
00000000
00000000
00000000
00000000
00000000
00000000
00000000
ENDCHAR
STARTCHAR U+00CB
ENCODING 203
SWIDTH 1000 0
DWIDTH 18 0
BBX 31 40 -6 -8
BITMAP
0003e3e0
0003e3e0
0003e3e0
0007c7c0
00000000
00000000
00000000
00000000
003fffe0
007fffc0
007fffc0
007fffc0
00f80000
00f80000
00f80000
01f00000
01fff000
01fff000
03ffe000
03ffe000
03e00000
07c00000
07c00000
07c00000
0f800000
0f800000
0f800000
1f000000
1ffff000
1ffff000
3fffe000
3fffe000
00000000
00000000
00000000
00000000
00000000
00000000
00000000
00000000
ENDCHAR
STARTCHAR U+00CA
ENCODING 202
SWIDTH 1000 0
DWIDTH 18 0
BBX 31 40 -6 -8
BITMAP
0000ff80
0000ff80
0000ff80
0001ff00
0007c7c0
0007c7c0
000f8f80
000f8f80
003fffe0
007fffc0
007fffc0
007fffc0
00f80000
00f80000
00f80000
01f00000
01ffc000
01ffc000
03ff8000
03ff8000
03e00000
07c00000
07c00000
07c00000
0f800000
0f800000
0f800000
1f000000
1ffff000
1ffff000
3fffe000
3fffe000
00000000
00000000
00000000
00000000
00000000
00000000
00000000
00000000
ENDCHAR
STARTCHAR U+00C9
ENCODING 201
SWIDTH 1000 0
DWIDTH 18 0
BBX 31 40 -6 -8
BITMAP
00000fe0
00000fe0
00000fe0
00001fc0
0001fc00
0001fc00
0003f800
0003f800
003fffe0
007fffc0
007fffc0
007fffc0
00f80000
00f80000
00f80000
01f00000
01fff000
01fff000
03ffe000
03ffe000
03e00000
07c00000
07c00000
07c00000
0f800000
0f800000
0f800000
1f000000
1ffff000
1ffff000
3fffe000
3fffe000
00000000
00000000
00000000
00000000
00000000
00000000
00000000
00000000
ENDCHAR
STARTCHAR U+00C8
ENCODING 200
SWIDTH 1000 0
DWIDTH 18 0
BBX 31 40 -6 -8
BITMAP
0003f800
0003f800
0003f800
0007f000
00007f00
00007f00
0000fe00
0000fe00
003fffe0
007fffc0
007fffc0
007fffc0
00f80000
00f80000
00f80000
01f00000
01fff000
01fff000
03ffe000
03ffe000
03e00000
07c00000
07c00000
07c00000
0f800000
0f800000
0f800000
1f000000
1ffff000
1ffff000
3fffe000
3fffe000
00000000
00000000
00000000
00000000
00000000
00000000
00000000
00000000
ENDCHAR
STARTCHAR U+00C7
ENCODING 199
SWIDTH 1000 0
DWIDTH 18 0
BBX 31 40 -6 -8
BITMAP
00000000
00000000
00000000
00000000
0001ffc0
0001ffc0
0003ff80
0003ff80
000f83e0
001f07c0
001f07c0
001f07c0
00f80000
00f80000
00f80000
01f00000
01f00000
01f00000
03e00000
03e00000
03e00000
07c00000
07c00000
07c00000
03e0f800
03e0f800
03e0f800
07c1f000
01ffc000
01ffc000
03ff8000
03ff8000
003e0000
007c0000
007c0000
007c0000
0ff80000
0ff80000
0ff80000
1ff00000
ENDCHAR
STARTCHAR U+00C6
ENCODING 198
SWIDTH 1000 0
DWIDTH 18 0
BBX 31 40 -6 -8
BITMAP
00000000
00000000
00000000
00000000
0001fff0
0001fff0
0003ffe0
0003ffe0
000ff800
001ff000
001ff000
001ff000
00fbe000
00fbe000
00fbe000
01f7c000
01f7fc00
01f7fc00
03eff800
03eff800
03ff8000
07ff0000
07ff0000
07ff0000
0fbe0000
0fbe0000
0fbe0000
1f7c0000
1f7ff000
1f7ff000
3effe000
3effe000
00000000
00000000
00000000
00000000
00000000
00000000
00000000
00000000
ENDCHAR
STARTCHAR U+00C5
ENCODING 197
SWIDTH 1000 0
DWIDTH 18 0
BBX 31 40 -6 -8
BITMAP
0000ff80
0000ff80
0000ff80
0001ff00
0007c7c0
0007c7c0
000f8f80
000f8f80
0003fe00
0007fc00
0007fc00
0007fc00
000ff800
000ff800
000ff800
001ff000
007c7c00
007c7c00
00f8f800
00f8f800
03fffe00
07fffc00
07fffc00
07fffc00
0f80f800
0f80f800
0f80f800
1f01f000
1f01f000
1f01f000
3e03e000
3e03e000
00000000
00000000
00000000
00000000
00000000
00000000
00000000
00000000
ENDCHAR
STARTCHAR U+00C4
ENCODING 196
SWIDTH 1000 0
DWIDTH 18 0
BBX 31 40 -6 -8
BITMAP
0003e3e0
0003e3e0
0003e3e0
0007c7c0
00000000
00000000
00000000
00000000
0000f800
0001f000
0001f000
0001f000
000ff800
000ff800
000ff800
001ff000
007c7c00
007c7c00
00f8f800
00f8f800
03fffe00
07fffc00
07fffc00
07fffc00
0f80f800
0f80f800
0f80f800
1f01f000
1f01f000
1f01f000
3e03e000
3e03e000
00000000
00000000
00000000
00000000
00000000
00000000
00000000
00000000
ENDCHAR
STARTCHAR U+00C3
ENCODING 195
SWIDTH 1000 0
DWIDTH 18 0
BBX 31 40 -6 -8
BITMAP
0000fef8
0000fef8
0000fef8
0001fdf0
0007dfc0
0007dfc0
000fbf80
000fbf80
0001b800
0001f000
0001f000
0001f000
000ff800
000ff800
000ff800
001ff000
007c7c00
007c7c00
00f8f800
00f8f800
03fffe00
07fffc00
07fffc00
07fffc00
0f80f800
0f80f800
0f80f800
1f01f000
1f01f000
1f01f000
3e03e000
3e03e000
00000000
00000000
00000000
00000000
00000000
00000000
00000000
00000000
ENDCHAR
STARTCHAR U+00C2
ENCODING 194
SWIDTH 1000 0
DWIDTH 18 0
BBX 31 40 -6 -8
BITMAP
0000ff80
0000ff80
0000ff80
0001ff00
0007c7c0
0007c7c0
000f8f80
000f8f80
0001b800
0001f000
0001f000
0001f000
000ff800
000ff800
000ff800
001ff000
007c7c00
007c7c00
00f8f800
00f8f800
03fffe00
07fffc00
07fffc00
07fffc00
0f80f800
0f80f800
0f80f800
1f01f000
1f01f000
1f01f000
3e03e000
3e03e000
00000000
00000000
00000000
00000000
00000000
00000000
00000000
00000000
ENDCHAR
STARTCHAR U+00C1
ENCODING 193
SWIDTH 1000 0
DWIDTH 18 0
BBX 31 40 -6 -8
BITMAP
00003f80
00003f80
00003f80
00007f00
0007f000
0007f000
000fe000
000fe000
0000f800
0001f000
0001f000
0001f000
000ff800
000ff800
000ff800
001ff000
007c7c00
007c7c00
00f8f800
00f8f800
03fffe00
07fffc00
07fffc00
07fffc00
0f80f800
0f80f800
0f80f800
1f01f000
1f01f000
1f01f000
3e03e000
3e03e000
00000000
00000000
00000000
00000000
00000000
00000000
00000000
00000000
ENDCHAR
STARTCHAR U+00C0
ENCODING 192
SWIDTH 1000 0
DWIDTH 18 0
BBX 31 40 -6 -8
BITMAP
0000fe00
0000fe00
0000fe00
0001fc00
00001fc0
00001fc0
00003f80
00003f80
0000f800
0001f000
0001f000
0001f000
000ff800
000ff800
000ff800
001ff000
007c7c00
007c7c00
00f8f800
00f8f800
03fffe00
07fffc00
07fffc00
07fffc00
0f80f800
0f80f800
0f80f800
1f01f000
1f01f000
1f01f000
3e03e000
3e03e000
00000000
00000000
00000000
00000000
00000000
00000000
00000000
00000000
ENDCHAR
STARTCHAR U+00BF
ENCODING 191
SWIDTH 1000 0
DWIDTH 18 0
BBX 31 40 -6 -8
BITMAP
00000000
00000000
00000000
00000000
00007c00
00007c00
0000f800
0000f800
00000000
00000000
00000000
00000000
0003e000
0003e000
0003e000
0007c000
0007c000
0007c000
000f8000
000f8000
00fe0000
01fc0000
01fc0000
01fc0000
0f80f800
0f80f800
0f80f800
1f01f000
07ffc000
07ffc000
0fff8000
0fff8000
00000000
00000000
00000000
00000000
00000000
00000000
00000000
00000000
ENDCHAR
STARTCHAR U+00BE
ENCODING 190
SWIDTH 1000 0
DWIDTH 18 0
BBX 31 40 -6 -8
BITMAP
000ffe00
000ffe00
000ffe00
001ffc00
00007c00
00007c00
0000f800
0000f800
000feb80
001fdf00
001fdf00
001fdf00
0003f800
0003f800
0003f800
0007f000
01ffc000
01ffc000
03ff8000
03ff8000
003eb800
007df000
007df000
007df000
03efe000
03efe000
03efe000
07afc000
1f7fc000
1f7fc000
3eff8000
3eff8000
06ffe000
07ffc000
07ffc000
07ffc000
003e0000
003e0000
003e0000
007c0000
ENDCHAR
STARTCHAR U+00BD
ENCODING 189
SWIDTH 1000 0
DWIDTH 18 0
BBX 31 40 -6 -8
BITMAP
00000000
00000000
00000000
00000000
0007c000
0007c000
000f8000
000f8000
003f8f80
007f1f00
007f1f00
007f1f00
003ef800
003ef800
003ef800
007df000
007fc000
007fc000
00ff8000
00ff8000
003ff800
007ff000
007ff000
007ff000
03fef800
03fef800
03fef800
07faf000
1f07c000
1f07c000
3e0f8000
3e0f8000
003e0000
007c0000
007c0000
007c0000
03ff8000
03ff8000
03ff8000
07ff0000
ENDCHAR
STARTCHAR U+00BC
ENCODING 188
SWIDTH 1000 0
DWIDTH 18 0
BBX 31 40 -6 -8
BITMAP
00000000
00000000
00000000
00000000
0007c000
0007c000
000f8000
000f8000
003f8f80
007f1f00
007f1f00
007f1f00
003ef800
003ef800
003ef800
007df000
007fc000
007fc000
00ff8000
00ff8000
003eb800
007df000
007df000
007df000
03efe000
03efe000
03efe000
07afc000
1f7fc000
1f7fc000
3eff8000
3eff8000
06ffe000
07ffc000
07ffc000
07ffc000
003e0000
003e0000
003e0000
007c0000
ENDCHAR
STARTCHAR U+00BB
ENCODING 187
SWIDTH 1000 0
DWIDTH 18 0
BBX 31 40 -6 -8
BITMAP
00000000
00000000
00000000
00000000
001f7c00
001f7c00
003ef800
003ef800
000fbe00
001f7c00
001f7c00
001f7c00
000fbe00
000fbe00
000fae00
001f7c00
0007df00
0007df00
000fbe00
000fbe00
003eb800
007df000
007df000
007df000
03ef8000
03ef8000
03ef8000
07af0000
1f7c0000
1f7c0000
3ef80000
3ef80000
00000000
00000000
00000000
00000000
00000000
00000000
00000000
00000000
ENDCHAR
STARTCHAR U+00BA
ENCODING 186
SWIDTH 1000 0
DWIDTH 18 0
BBX 31 40 -6 -8
BITMAP
00000000
00000000
00000000
00000000
0007ffc0
0007ffc0
000fff80
000fff80
003e03e0
007c07c0
007c07c0
007c07c0
00f80f80
00f80f80
00f80f80
01f01f00
01f01f00
01f01f00
03e03e00
03e03e00
00fff800
01fff000
01fff000
01fff000
00000000
00000000
00000000
00000000
1ffff000
1ffff000
3fffe000
3fffe000
00000000
00000000
00000000
00000000
00000000
00000000
00000000
00000000
ENDCHAR
STARTCHAR U+00B9
ENCODING 185
SWIDTH 1000 0
DWIDTH 18 0
BBX 31 40 -6 -8
BITMAP
00003e00
00003e00
00003e00
00007c00
0001fc00
0001fc00
0003f800
0003f800
0000f800
0001f000
0001f000
0001f000
0003e000
0003e000
0003e000
0007c000
001ff000
001ff000
003fe000
003fe000
00000000
00000000
00000000
00000000
00000000
00000000
00000000
00000000
00000000
00000000
00000000
00000000
00000000
00000000
00000000
00000000
00000000
00000000
00000000
00000000
ENDCHAR
STARTCHAR U+00B8
ENCODING 184
SWIDTH 1000 0
DWIDTH 18 0
BBX 31 40 -6 -8
BITMAP
00000000
00000000
00000000
00000000
00000000
00000000
00000000
00000000
00000000
00000000
00000000
00000000
00000000
00000000
00000000
00000000
00000000
00000000
00000000
00000000
00000000
00000000
00000000
00000000
00000000
00000000
00000000
00000000
00000000
00000000
00000000
00000000
003e0000
007c0000
007c0000
007c0000
0ff80000
0ff80000
0ff80000
1ff00000
ENDCHAR
STARTCHAR U+2022
ENCODING 8226
SWIDTH 1000 0
DWIDTH 18 0
BBX 31 40 -6 -8
BITMAP
00000000
00000000
00000000
00000000
00000000
00000000
00000000
00000000
00000000
00000000
00000000
00000000
000fe000
000fe000
000fe000
001fc000
001fc000
001fc000
003f8000
003f8000
00000000
00000000
00000000
00000000
00000000
00000000
00000000
00000000
00000000
00000000
00000000
00000000
00000000
00000000
00000000
00000000
00000000
00000000
00000000
00000000
ENDCHAR
STARTCHAR U+00B6
ENCODING 182
SWIDTH 1000 0
DWIDTH 18 0
BBX 31 40 -6 -8
BITMAP
00000000
00000000
00000000
00000000
0007fff0
0007fff0
000fffe0
000fffe0
003fbfe0
007f7fc0
007f7fc0
007f7fc0
00feff80
00feff80
00feff80
01fdff00
007fff00
007fff00
00fffe00
00fffe00
0003fe00
0007fc00
0007fc00
0007fc00
000ff800
000ff800
000ff800
001ff000
001ff000
001ff000
003fe000
003fe000
00000000
00000000
00000000
00000000
00000000
00000000
00000000
00000000
ENDCHAR
STARTCHAR U+00B5
ENCODING 181
SWIDTH 1000 0
DWIDTH 18 0
BBX 31 40 -6 -8
BITMAP
00000000
00000000
00000000
00000000
00000000
00000000
00000000
00000000
00000000
00000000
00000000
00000000
003e0f80
003e0f80
003e0f80
007c1f00
007c1f00
007c1f00
00f83e00
00f83e00
00f83e00
01f07c00
01f07c00
01f07c00
03fbf800
03fbf800
03fbf800
07f7f000
07fff000
07fff000
0fffe000
0fffe000
0f800000
1f000000
1f000000
1f000000
f8000000
f8000000
f8000000
f0000000
ENDCHAR
STARTCHAR U+00B4
ENCODING 180
SWIDTH 1000 0
DWIDTH 18 0
BBX 31 40 -6 -8
BITMAP
00000000
00000000
00000000
00000000
00001fc0
00001fc0
00003f80
00003f80
00003e00
00007c00
00007c00
00007c00
0003e000
0003e000
0003e000
0007c000
00000000
00000000
00000000
00000000
00000000
00000000
00000000
00000000
00000000
00000000
00000000
00000000
00000000
00000000
00000000
00000000
00000000
00000000
00000000
00000000
00000000
00000000
00000000
00000000
ENDCHAR
STARTCHAR U+00B3
ENCODING 179
SWIDTH 1000 0
DWIDTH 18 0
BBX 31 40 -6 -8
BITMAP
0003ffe0
0003ffe0
0003ffe0
0007ffc0
000007c0
000007c0
00000f80
00000f80
0000fe00
0001fc00
0001fc00
0001fc00
00003e00
00003e00
00003e00
00007c00
007ff000
007ff000
00ffe000
00ffe000
00000000
00000000
00000000
00000000
00000000
00000000
00000000
00000000
00000000
00000000
00000000
00000000
00000000
00000000
00000000
00000000
00000000
00000000
00000000
00000000
ENDCHAR
STARTCHAR U+00B2
ENCODING 178
SWIDTH 1000 0
DWIDTH 18 0
BBX 31 40 -6 -8
BITMAP
0000ff80
0000ff80
0000ff80
0001ff00
0007c7c0
0007c7c0
000f8f80
000f8f80
0001be00
0001fc00
0001fc00
0001fc00
000f8000
000f8000
000f8000
001f0000
007ffc00
007ffc00
00fff800
00fff800
00000000
00000000
00000000
00000000
00000000
00000000
00000000
00000000
00000000
00000000
00000000
00000000
00000000
00000000
00000000
00000000
00000000
00000000
00000000
00000000
ENDCHAR
STARTCHAR U+00AF
ENCODING 175
SWIDTH 1000 0
DWIDTH 18 0
BBX 31 40 -6 -8
BITMAP
0003ffe0
0003ffe0
0003ffe0
0007ffc0
00000000
00000000
00000000
00000000
00000000
00000000
00000000
00000000
00000000
00000000
00000000
00000000
00000000
00000000
00000000
00000000
00000000
00000000
00000000
00000000
00000000
00000000
00000000
00000000
00000000
00000000
00000000
00000000
00000000
00000000
00000000
00000000
00000000
00000000
00000000
00000000
ENDCHAR
STARTCHAR U+00AE
ENCODING 174
SWIDTH 1000 0
DWIDTH 18 0
BBX 31 40 -6 -8
BITMAP
00000000
00000000
00000000
00000000
0001ff00
0001ff00
0003fe00
0003fe00
000f8f80
001f1f00
001f1f00
001f1f00
00ffff80
00ffff80
00ffff80
01ffff00
01ff7f00
01ff7f00
03fefe00
03fefe00
03fffe00
07fffc00
07fffc00
07fffc00
0ffef800
0ffef800
0ffef800
1ffdf000
07ffc000
07ffc000
0fff8000
0fff8000
03fe0000
07fc0000
07fc0000
07fc0000
00000000
00000000
00000000
00000000
ENDCHAR
STARTCHAR U+00D7
ENCODING 215
SWIDTH 1000 0
DWIDTH 18 0
BBX 31 40 -6 -8
BITMAP
00000000
00000000
00000000
00000000
00000000
00000000
00000000
00000000
000f8f80
001f1f00
001f1f00
001f1f00
000ff800
000ff800
000ff800
001ff000
0007c000
0007c000
000f8000
000f8000
003fe000
007fc000
007fc000
007fc000
03e3e000
03e3e000
03e3e000
07c7c000
00000000
00000000
00000000
00000000
00000000
00000000
00000000
00000000
00000000
00000000
00000000
00000000
ENDCHAR
STARTCHAR U+00AC
ENCODING 172
SWIDTH 1000 0
DWIDTH 18 0
BBX 31 40 -6 -8
BITMAP
00000000
00000000
00000000
00000000
00000000
00000000
00000000
00000000
00000000
00000000
00000000
00000000
00000000
00000000
00000000
00000000
00000000
00000000
00000000
00000000
03fffe00
07fffc00
07fffc00
07fffc00
0000f800
0000f800
0000f800
0001f000
0001f000
0001f000
0003e000
0003e000
00000000
00000000
00000000
00000000
00000000
00000000
00000000
00000000
ENDCHAR
STARTCHAR U+00AB
ENCODING 171
SWIDTH 1000 0
DWIDTH 18 0
BBX 31 40 -6 -8
BITMAP
00000000
00000000
00000000
00000000
00007df0
00007df0
0000fbe0
0000fbe0
0003eb80
0007df00
0007df00
0007df00
003ef800
003ef800
003ef800
007af000
01f7c000
01f7c000
03ef8000
03ef8000
00fbe000
01f7c000
01f7c000
01f7c000
00fbe000
00fbe000
00fae000
01f7c000
007df000
007df000
00fbe000
00fbe000
00000000
00000000
00000000
00000000
00000000
00000000
00000000
00000000
ENDCHAR
STARTCHAR U+00AA
ENCODING 170
SWIDTH 1000 0
DWIDTH 18 0
BBX 31 40 -6 -8
BITMAP
00000000
00000000
00000000
00000000
0007ffc0
0007ffc0
000fff80
000fff80
000003e0
000007c0
000007c0
000007c0
003fff80
003fff80
003fff80
007fff00
01f07f00
01f07f00
03e0fe00
03e0fe00
00fffe00
01fffc00
01fffc00
01fffc00
00000000
00000000
00000000
00000000
1ffff000
1ffff000
3fffe000
3fffe000
00000000
00000000
00000000
00000000
00000000
00000000
00000000
00000000
ENDCHAR
STARTCHAR U+00A9
ENCODING 169
SWIDTH 1000 0
DWIDTH 18 0
BBX 31 40 -6 -8
BITMAP
00000000
00000000
00000000
00000000
0001ff00
0001ff00
0003fe00
0003fe00
000f8f80
001f1f00
001f1f00
001f1f00
00fbff80
00fbff80
00fbff80
01f7ff00
01ff1f00
01ff1f00
03fe3e00
03fe3e00
03fe3e00
07fc7c00
07fc7c00
07fc7c00
0fbff800
0fbff800
0faff800
1f7ff000
07c7c000
07c7c000
0f8f8000
0f8f8000
03fe0000
07fc0000
07fc0000
07fc0000
00000000
00000000
00000000
00000000
ENDCHAR
STARTCHAR U+00A4
ENCODING 164
SWIDTH 1000 0
DWIDTH 18 0
BBX 31 40 -6 -8
BITMAP
00000000
00000000
00000000
00000000
00000000
00000000
00000000
00000000
003e03e0
007c07c0
007c07c0
007c07c0
003ffe00
003ffe00
003ffe00
007ffc00
007c7c00
007c7c00
00f8f800
00f8f800
00fff800
01fff000
01fff000
01fff000
0f80f800
0f80f800
0f80f800
1f01f000
00000000
00000000
00000000
00000000
00000000
00000000
00000000
00000000
00000000
00000000
00000000
00000000
ENDCHAR
STARTCHAR U+00A7
ENCODING 167
SWIDTH 1000 0
DWIDTH 18 0
BBX 31 40 -6 -8
BITMAP
00000000
00000000
00000000
00000000
0001ffc0
0001ffc0
0003ff80
0003ff80
000f8000
001f0000
001f0000
001f0000
000ff800
000ff800
000ff800
001ff000
007c7c00
007c7c00
00f8f800
00f8f800
003fe000
007fc000
007fc000
007fc000
0003e000
0003e000
0003e000
0007c000
07ff0000
07ff0000
0ffe0000
0ffe0000
00000000
00000000
00000000
00000000
00000000
00000000
00000000
00000000
ENDCHAR
STARTCHAR U+00A6
ENCODING 166
SWIDTH 1000 0
DWIDTH 18 0
BBX 31 40 -6 -8
BITMAP
00000000
00000000
00000000
00000000
00007c00
00007c00
0000f800
0000f800
0000f800
0001f000
0001f000
0001f000
0003e000
0003e000
0003e000
0007c000
00000000
00000000
00000000
00000000
000f8000
001f0000
001f0000
001f0000
003e0000
003e0000
003e0000
007c0000
007c0000
007c0000
00f80000
00f80000
00000000
00000000
00000000
00000000
00000000
00000000
00000000
00000000
ENDCHAR
STARTCHAR U+00A5
ENCODING 165
SWIDTH 1000 0
DWIDTH 18 0
BBX 31 40 -6 -8
BITMAP
00000000
00000000
00000000
00000000
001f01f0
001f01f0
003e03e0
003e03e0
000f8f80
001f1f00
001f1f00
001f1f00
000ff800
000ff800
000ff800
001ff000
0007c000
0007c000
000f8000
000f8000
03fffe00
07fffc00
07fffc00
07fffc00
003e0000
003e0000
003e0000
007c0000
007c0000
007c0000
00f80000
00f80000
00000000
00000000
00000000
00000000
00000000
00000000
00000000
00000000
ENDCHAR
STARTCHAR U+00A8
ENCODING 168
SWIDTH 1000 0
DWIDTH 18 0
BBX 31 40 -6 -8
BITMAP
0003e3e0
0003e3e0
0003e3e0
0007c7c0
00000000
00000000
00000000
00000000
00000000
00000000
00000000
00000000
00000000
00000000
00000000
00000000
00000000
00000000
00000000
00000000
00000000
00000000
00000000
00000000
00000000
00000000
00000000
00000000
00000000
00000000
00000000
00000000
00000000
00000000
00000000
00000000
00000000
00000000
00000000
00000000
ENDCHAR
STARTCHAR U+00A2
ENCODING 162
SWIDTH 1000 0
DWIDTH 18 0
BBX 31 40 -6 -8
BITMAP
00000000
00000000
00000000
00000000
00000000
00000000
00000000
00000000
0000f800
0001f000
0001f000
0001f000
003ffe00
003ffe00
003ffe00
007ffc00
01f7df00
01f7df00
03efbe00
03efbe00
03ef8000
07df0000
07df0000
07df0000
0fbef800
0fbef800
0fbef800
1f7df000
07ffc000
07ffc000
0fff8000
0fff8000
00f80000
01f00000
01f00000
01f00000
00000000
00000000
00000000
00000000
ENDCHAR
STARTCHAR U+00A1
ENCODING 161
SWIDTH 1000 0
DWIDTH 18 0
BBX 31 40 -6 -8
BITMAP
00000000
00000000
00000000
00000000
00007c00
00007c00
0000f800
0000f800
00000000
00000000
00000000
00000000
0003e000
0003e000
0003e000
0007c000
0007c000
0007c000
000f8000
000f8000
000f8000
001f0000
001f0000
001f0000
003e0000
003e0000
003e0000
007c0000
007c0000
007c0000
00f80000
00f80000
00000000
00000000
00000000
00000000
00000000
00000000
00000000
00000000
ENDCHAR
STARTCHAR U+201F
ENCODING 8223
SWIDTH 1000 0
DWIDTH 18 0
BBX 31 40 -6 -8
BITMAP
00000000
00000000
00000000
00000000
0007ffc0
0007ffc0
000fff80
000fff80
000fbe00
001f7c00
001f7c00
001f7c00
000fbe00
000fbe00
000fbe00
001f7c00
00000000
00000000
00000000
00000000
00000000
00000000
00000000
00000000
00000000
00000000
00000000
00000000
00000000
00000000
00000000
00000000
00000000
00000000
00000000
00000000
00000000
00000000
00000000
00000000
ENDCHAR
STARTCHAR U+201E
ENCODING 8222
SWIDTH 1000 0
DWIDTH 18 0
BBX 31 40 -6 -8
BITMAP
00000000
00000000
00000000
00000000
00000000
00000000
00000000
00000000
00000000
00000000
00000000
00000000
00000000
00000000
00000000
00000000
00000000
00000000
00000000
00000000
00000000
00000000
00000000
00000000
00000000
00000000
00000000
00000000
07df0000
07df0000
0fbe0000
0fbe0000
0fbe0000
1f7c0000
1f7c0000
1f7c0000
00000000
00000000
00000000
00000000
ENDCHAR
STARTCHAR U+201D
ENCODING 8221
SWIDTH 1000 0
DWIDTH 18 0
BBX 31 40 -6 -8
BITMAP
00000000
00000000
00000000
00000000
0007f7f0
0007f7f0
000fefe0
000fefe0
0003e3e0
0007c7c0
0007c7c0
0007c7c0
003e3e00
003e3e00
003e3e00
007c7c00
00000000
00000000
00000000
00000000
00000000
00000000
00000000
00000000
00000000
00000000
00000000
00000000
00000000
00000000
00000000
00000000
00000000
00000000
00000000
00000000
00000000
00000000
00000000
00000000
ENDCHAR
STARTCHAR U+201C
ENCODING 8220
SWIDTH 1000 0
DWIDTH 18 0
BBX 31 40 -6 -8
BITMAP
00000000
00000000
00000000
00000000
0001f1f0
0001f1f0
0003e3e0
0003e3e0
000f8f80
001f1f00
001f1f00
001f1f00
003fbf80
003fbf80
003fbf80
007f7f00
00000000
00000000
00000000
00000000
00000000
00000000
00000000
00000000
00000000
00000000
00000000
00000000
00000000
00000000
00000000
00000000
00000000
00000000
00000000
00000000
00000000
00000000
00000000
00000000
ENDCHAR
STARTCHAR U+201B
ENCODING 8219
SWIDTH 1000 0
DWIDTH 18 0
BBX 31 40 -6 -8
BITMAP
00000000
00000000
00000000
00000000
00007c00
00007c00
0000f800
0000f800
0000f800
0001f000
0001f000
0001f000
0003e000
0003e000
0003e000
0007c000
00000000
00000000
00000000
00000000
00000000
00000000
00000000
00000000
00000000
00000000
00000000
00000000
00000000
00000000
00000000
00000000
00000000
00000000
00000000
00000000
00000000
00000000
00000000
00000000
ENDCHAR
STARTCHAR U+201A
ENCODING 8218
SWIDTH 1000 0
DWIDTH 18 0
BBX 31 40 -6 -8
BITMAP
00000000
00000000
00000000
00000000
00000000
00000000
00000000
00000000
00000000
00000000
00000000
00000000
00000000
00000000
00000000
00000000
00000000
00000000
00000000
00000000
000f8000
001f0000
001f0000
001f0000
003e0000
003e0000
003e0000
007c0000
007c0000
007c0000
00f80000
00f80000
00000000
00000000
00000000
00000000
00000000
00000000
00000000
00000000
ENDCHAR
STARTCHAR U+2019
ENCODING 8217
SWIDTH 1000 0
DWIDTH 18 0
BBX 31 40 -6 -8
BITMAP
00000000
00000000
00000000
00000000
0007f000
0007f000
000fe000
000fe000
0003e000
0007c000
0007c000
0007c000
003e0000
003e0000
003e0000
007c0000
00000000
00000000
00000000
00000000
00000000
00000000
00000000
00000000
00000000
00000000
00000000
00000000
00000000
00000000
00000000
00000000
00000000
00000000
00000000
00000000
00000000
00000000
00000000
00000000
ENDCHAR
STARTCHAR U+2018
ENCODING 8216
SWIDTH 1000 0
DWIDTH 18 0
BBX 31 40 -6 -8
BITMAP
00000000
00000000
00000000
00000000
000001f0
000001f0
000003e0
000003e0
00000f80
00001f00
00001f00
00001f00
00003f80
00003f80
00003f80
00007f00
00000000
00000000
00000000
00000000
00000000
00000000
00000000
00000000
00000000
00000000
00000000
00000000
00000000
00000000
00000000
00000000
00000000
00000000
00000000
00000000
00000000
00000000
00000000
00000000
ENDCHAR
STARTCHAR U+2017
ENCODING 8215
SWIDTH 1000 0
DWIDTH 18 0
BBX 31 40 -6 -8
BITMAP
00000000
00000000
00000000
00000000
00000000
00000000
00000000
00000000
00000000
00000000
00000000
00000000
00000000
00000000
00000000
00000000
00000000
00000000
00000000
00000000
00000000
00000000
00000000
00000000
00000000
00000000
00000000
00000000
1ffff000
1ffff000
3fffe000
3fffe000
00000000
00000000
00000000
00000000
ffff8000
ffff8000
ffff8000
ffff0000
ENDCHAR
STARTCHAR U+2016
ENCODING 8214
SWIDTH 1000 0
DWIDTH 18 0
BBX 31 40 -6 -8
BITMAP
00000000
00000000
00000000
00000000
00007fc0
00007fc0
0000ff80
0000ff80
0000ff80
0001ff00
0001ff00
0001ff00
0003fe00
0003fe00
0003fe00
0007fc00
0007fc00
0007fc00
000ff800
000ff800
000ff800
001ff000
001ff000
001ff000
003fe000
003fe000
003fe000
007fc000
007fc000
007fc000
00ff8000
00ff8000
00000000
00000000
00000000
00000000
00000000
00000000
00000000
00000000
ENDCHAR
STARTCHAR U+2015
ENCODING 8213
SWIDTH 1000 0
DWIDTH 18 0
BBX 31 40 -6 -8
BITMAP
00000000
00000000
00000000
00000000
00000000
00000000
00000000
00000000
00000000
00000000
00000000
00000000
00000000
00000000
00000000
00000000
01ffffc0
01ffffc0
03ffff80
03ffff80
00000000
00000000
00000000
00000000
00000000
00000000
00000000
00000000
00000000
00000000
00000000
00000000
00000000
00000000
00000000
00000000
00000000
00000000
00000000
00000000
ENDCHAR
STARTCHAR U+2014
ENCODING 8212
SWIDTH 1000 0
DWIDTH 18 0
BBX 31 40 -6 -8
BITMAP
00000000
00000000
00000000
00000000
00000000
00000000
00000000
00000000
00000000
00000000
00000000
00000000
00000000
00000000
00000000
00000000
01ffff00
01ffff00
03fffe00
03fffe00
00000000
00000000
00000000
00000000
00000000
00000000
00000000
00000000
00000000
00000000
00000000
00000000
00000000
00000000
00000000
00000000
00000000
00000000
00000000
00000000
ENDCHAR
STARTCHAR U+2013
ENCODING 8211
SWIDTH 1000 0
DWIDTH 18 0
BBX 31 40 -6 -8
BITMAP
00000000
00000000
00000000
00000000
00000000
00000000
00000000
00000000
00000000
00000000
00000000
00000000
00000000
00000000
00000000
00000000
001ffc00
001ffc00
003ff800
003ff800
00000000
00000000
00000000
00000000
00000000
00000000
00000000
00000000
00000000
00000000
00000000
00000000
00000000
00000000
00000000
00000000
00000000
00000000
00000000
00000000
ENDCHAR
STARTCHAR U+2012
ENCODING 8210
SWIDTH 1000 0
DWIDTH 18 0
BBX 31 40 -6 -8
BITMAP
00000000
00000000
00000000
00000000
00000000
00000000
00000000
00000000
00000000
00000000
00000000
00000000
00000000
00000000
00000000
00000000
007ffc00
007ffc00
00fff800
00fff800
00000000
00000000
00000000
00000000
00000000
00000000
00000000
00000000
00000000
00000000
00000000
00000000
00000000
00000000
00000000
00000000
00000000
00000000
00000000
00000000
ENDCHAR
STARTCHAR U+2011
ENCODING 8209
SWIDTH 1000 0
DWIDTH 18 0
BBX 31 40 -6 -8
BITMAP
00000000
00000000
00000000
00000000
00000000
00000000
00000000
00000000
00000000
00000000
00000000
00000000
00000000
00000000
00000000
00000000
001ff000
001ff000
003fe000
003fe000
00000000
00000000
00000000
00000000
00000000
00000000
00000000
00000000
00000000
00000000
00000000
00000000
00000000
00000000
00000000
00000000
00000000
00000000
00000000
00000000
ENDCHAR
STARTCHAR U+2010
ENCODING 8208
SWIDTH 1000 0
DWIDTH 18 0
BBX 31 40 -6 -8
BITMAP
00000000
00000000
00000000
00000000
00000000
00000000
00000000
00000000
00000000
00000000
00000000
00000000
00000000
00000000
00000000
00000000
001ff000
001ff000
003fe000
003fe000
00000000
00000000
00000000
00000000
00000000
00000000
00000000
00000000
00000000
00000000
00000000
00000000
00000000
00000000
00000000
00000000
00000000
00000000
00000000
00000000
ENDCHAR
STARTCHAR U+007F
ENCODING 127
SWIDTH 1000 0
DWIDTH 18 0
BBX 31 40 -6 -8
BITMAP
00000000
00000000
00000000
00000000
001ff000
001ff000
003fe000
003fe000
003ef800
007df000
007df000
007df000
00fbe000
00fbe000
00fbe000
01f7c000
01f7c000
01f7c000
03ef8000
03ef8000
03ffe000
07ffc000
07ffc000
07ffc000
00f80000
00f80000
00f80000
01f00000
01f00000
01f00000
03e00000
03e00000
03e00000
07c00000
07c00000
07c00000
0f800000
0f800000
0f800000
1f000000
ENDCHAR
STARTCHAR U+007E
ENCODING 126
SWIDTH 1000 0
DWIDTH 18 0
BBX 31 40 -6 -8
BITMAP
00000000
00000000
00000000
00000000
0007f1f0
0007f1f0
000fe3e0
000fe3e0
003efbe0
007df7c0
007df7c0
007df7c0
00f8fe00
00f8fe00
00f8fe00
01f1fc00
00000000
00000000
00000000
00000000
00000000
00000000
00000000
00000000
00000000
00000000
00000000
00000000
00000000
00000000
00000000
00000000
00000000
00000000
00000000
00000000
00000000
00000000
00000000
00000000
ENDCHAR
STARTCHAR U+007D
ENCODING 125
SWIDTH 1000 0
DWIDTH 18 0
BBX 31 40 -6 -8
BITMAP
00000000
00000000
00000000
00000000
001ff000
001ff000
003fe000
003fe000
0000f800
0001f000
0001f000
0001f000
000f8000
000f8000
000f8000
001f0000
0007f000
0007f000
000fe000
000fe000
003e0000
007c0000
007c0000
007c0000
003e0000
003e0000
003e0000
007c0000
1ff00000
1ff00000
3fe00000
3fe00000
00000000
00000000
00000000
00000000
00000000
00000000
00000000
00000000
ENDCHAR
STARTCHAR U+007C
ENCODING 124
SWIDTH 1000 0
DWIDTH 18 0
BBX 31 40 -6 -8
BITMAP
00000000
00000000
00000000
00000000
00007c00
00007c00
0000f800
0000f800
0000f800
0001f000
0001f000
0001f000
0003e000
0003e000
0003e000
0007c000
0007c000
0007c000
000f8000
000f8000
000f8000
001f0000
001f0000
001f0000
003e0000
003e0000
003e0000
007c0000
007c0000
007c0000
00f80000
00f80000
00000000
00000000
00000000
00000000
00000000
00000000
00000000
00000000
ENDCHAR
STARTCHAR U+007B
ENCODING 123
SWIDTH 1000 0
DWIDTH 18 0
BBX 31 40 -6 -8
BITMAP
00000000
00000000
00000000
00000000
00001ff0
00001ff0
00003fe0
00003fe0
0000f800
0001f000
0001f000
0001f000
0000f800
0000f800
0000f800
0001f000
001fc000
001fc000
003f8000
003f8000
0003e000
0007c000
0007c000
0007c000
003e0000
003e0000
003e0000
007c0000
001ff000
001ff000
003fe000
003fe000
00000000
00000000
00000000
00000000
00000000
00000000
00000000
00000000
ENDCHAR
STARTCHAR U+007A
ENCODING 122
SWIDTH 1000 0
DWIDTH 18 0
BBX 31 40 -6 -8
BITMAP
00000000
00000000
00000000
00000000
00000000
00000000
00000000
00000000
00000000
00000000
00000000
00000000
00ffff80
00ffff80
00ffff80
01ffff00
00007c00
00007c00
0000f800
0000f800
000fe000
001fc000
001fc000
001fc000
00f80000
00f80000
00f80000
01f00000
1ffff000
1ffff000
3fffe000
3fffe000
00000000
00000000
00000000
00000000
00000000
00000000
00000000
00000000
ENDCHAR
STARTCHAR U+0079
ENCODING 121
SWIDTH 1000 0
DWIDTH 18 0
BBX 31 40 -6 -8
BITMAP
00000000
00000000
00000000
00000000
00000000
00000000
00000000
00000000
00000000
00000000
00000000
00000000
00f83e00
00f83e00
00f83e00
01f07c00
01f07c00
01f07c00
03e0f800
03e0f800
03e3f800
07c7f000
07c7f000
07c7f000
03ffe000
03ffe000
03ffe000
07ffc000
0007c000
0007c000
000f8000
000f8000
3e0f8000
7c1f0000
7c1f0000
7c1f0000
3ff80000
3ff80000
3ff80000
7ff00000
ENDCHAR
STARTCHAR U+0078
ENCODING 120
SWIDTH 1000 0
DWIDTH 18 0
BBX 31 40 -6 -8
BITMAP
00000000
00000000
00000000
00000000
00000000
00000000
00000000
00000000
00000000
00000000
00000000
00000000
00f83e00
00f83e00
00f83e00
01f07c00
007df000
007df000
00fbe000
00fbe000
003f8000
007f0000
007f0000
007f0000
03ef8000
03ef8000
03ef8000
07df0000
1f07c000
1f07c000
3e0f8000
3e0f8000
00000000
00000000
00000000
00000000
00000000
00000000
00000000
00000000
ENDCHAR
STARTCHAR U+0077
ENCODING 119
SWIDTH 1000 0
DWIDTH 18 0
BBX 31 40 -6 -8
BITMAP
00000000
00000000
00000000
00000000
00000000
00000000
00000000
00000000
00000000
00000000
00000000
00000000
00f80f80
00f80f80
00f80f80
01f01f00
01f01f00
01f01f00
03e03e00
03e03e00
03efbe00
07df7c00
07df7c00
07df7c00
0ffff800
0ffff800
0ffff800
1ffff000
07c7c000
07c7c000
0f8f8000
0f8f8000
00000000
00000000
00000000
00000000
00000000
00000000
00000000
00000000
ENDCHAR
STARTCHAR U+0076
ENCODING 118
SWIDTH 1000 0
DWIDTH 18 0
BBX 31 40 -6 -8
BITMAP
00000000
00000000
00000000
00000000
00000000
00000000
00000000
00000000
00000000
00000000
00000000
00000000
00f80f80
00f80f80
00f80f80
01f01f00
01f01f00
01f01f00
03e03e00
03e03e00
00f8f800
01f1f000
01f1f000
01f1f000
00ff8000
00ff8000
00ff8000
01ff0000
007c0000
007c0000
00f80000
00f80000
00000000
00000000
00000000
00000000
00000000
00000000
00000000
00000000
ENDCHAR
STARTCHAR U+0075
ENCODING 117
SWIDTH 1000 0
DWIDTH 18 0
BBX 31 40 -6 -8
BITMAP
00000000
00000000
00000000
00000000
00000000
00000000
00000000
00000000
00000000
00000000
00000000
00000000
00f83e00
00f83e00
00f83e00
01f07c00
01f07c00
01f07c00
03e0f800
03e0f800
03e0f800
07c1f000
07c1f000
07c1f000
0f83e000
0f83e000
0f83e000
1f07c000
07fff000
07fff000
0fffe000
0fffe000
00000000
00000000
00000000
00000000
00000000
00000000
00000000
00000000
ENDCHAR
STARTCHAR U+0074
ENCODING 116
SWIDTH 1000 0
DWIDTH 18 0
BBX 31 40 -6 -8
BITMAP
00000000
00000000
00000000
00000000
0001f000
0001f000
0003e000
0003e000
0003e000
0007c000
0007c000
0007c000
00fff800
00fff800
00fff800
01fff000
001f0000
001f0000
003e0000
003e0000
003e0000
007c0000
007c0000
007c0000
00fbe000
00fbe000
00fbe000
01f7c000
007f0000
007f0000
00fe0000
00fe0000
00000000
00000000
00000000
00000000
00000000
00000000
00000000
00000000
ENDCHAR
STARTCHAR U+0073
ENCODING 115
SWIDTH 1000 0
DWIDTH 18 0
BBX 31 40 -6 -8
BITMAP
00000000
00000000
00000000
00000000
00000000
00000000
00000000
00000000
00000000
00000000
00000000
00000000
003ffe00
003ffe00
003ffe00
007ffc00
01f00000
01f00000
03e00000
03e00000
00fff800
01fff000
01fff000
01fff000
0000f800
0000f800
0000f800
0001f000
1fffc000
1fffc000
3fff8000
3fff8000
00000000
00000000
00000000
00000000
00000000
00000000
00000000
00000000
ENDCHAR
STARTCHAR U+0072
ENCODING 114
SWIDTH 1000 0
DWIDTH 18 0
BBX 31 40 -6 -8
BITMAP
00000000
00000000
00000000
00000000
00000000
00000000
00000000
00000000
00000000
00000000
00000000
00000000
00fbfe00
00fbfe00
00fbfe00
01f7fc00
007f1f00
007f1f00
00fe3e00
00fe3e00
00f80000
01f00000
01f00000
01f00000
03e00000
03e00000
03e00000
07c00000
07c00000
07c00000
0f800000
0f800000
00000000
00000000
00000000
00000000
00000000
00000000
00000000
00000000
ENDCHAR
STARTCHAR U+0071
ENCODING 113
SWIDTH 1000 0
DWIDTH 18 0
BBX 31 40 -6 -8
BITMAP
00000000
00000000
00000000
00000000
00000000
00000000
00000000
00000000
00000000
00000000
00000000
00000000
003fff80
003fff80
003fff80
007fff00
01f07f00
01f07f00
03e0fe00
03e0fe00
03e0fe00
07c1fc00
07c1fc00
07c1fc00
03fff800
03fff800
03fff800
07fff000
0001f000
0001f000
0003e000
0003e000
0003e000
0007c000
0007c000
0007c000
000f8000
000f8000
000f8000
001f0000
ENDCHAR
STARTCHAR U+0070
ENCODING 112
SWIDTH 1000 0
DWIDTH 18 0
BBX 31 40 -6 -8
BITMAP
00000000
00000000
00000000
00000000
00000000
00000000
00000000
00000000
00000000
00000000
00000000
00000000
00fffe00
00fffe00
00fffe00
01fffc00
01fc1f00
01fc1f00
03f83e00
03f83e00
03f83e00
07f07c00
07f07c00
07f07c00
0fffe000
0fffe000
0fffe000
1fffc000
1f000000
1f000000
3e000000
3e000000
3e000000
7c000000
7c000000
7c000000
f8000000
f8000000
f8000000
f0000000
ENDCHAR
STARTCHAR U+006f
ENCODING 111
SWIDTH 1000 0
DWIDTH 18 0
BBX 31 40 -6 -8
BITMAP
00000000
00000000
00000000
00000000
00000000
00000000
00000000
00000000
00000000
00000000
00000000
00000000
003ffe00
003ffe00
003ffe00
007ffc00
01f01f00
01f01f00
03e03e00
03e03e00
03e03e00
07c07c00
07c07c00
07c07c00
0f80f800
0f80f800
0f80f800
1f01f000
07ffc000
07ffc000
0fff8000
0fff8000
00000000
00000000
00000000
00000000
00000000
00000000
00000000
00000000
ENDCHAR
STARTCHAR U+006e
ENCODING 110
SWIDTH 1000 0
DWIDTH 18 0
BBX 31 40 -6 -8
BITMAP
00000000
00000000
00000000
00000000
00000000
00000000
00000000
00000000
00000000
00000000
00000000
00000000
00fffe00
00fffe00
00fffe00
01fffc00
01fc1f00
01fc1f00
03f83e00
03f83e00
03e03e00
07c07c00
07c07c00
07c07c00
0f80f800
0f80f800
0f80f800
1f01f000
1f01f000
1f01f000
3e03e000
3e03e000
00000000
00000000
00000000
00000000
00000000
00000000
00000000
00000000
ENDCHAR
STARTCHAR U+006d
ENCODING 109
SWIDTH 1000 0
DWIDTH 18 0
BBX 31 40 -6 -8
BITMAP
00000000
00000000
00000000
00000000
00000000
00000000
00000000
00000000
00000000
00000000
00000000
00000000
00fe3e00
00fe3e00
00fe3e00
01fc7c00
01ffff00
01ffff00
03fffe00
03fffe00
03efbe00
07df7c00
07df7c00
07df7c00
0fbef800
0fbef800
0fbef800
1f7df000
1f01f000
1f01f000
3e03e000
3e03e000
00000000
00000000
00000000
00000000
00000000
00000000
00000000
00000000
ENDCHAR
STARTCHAR U+006c
ENCODING 108
SWIDTH 1000 0
DWIDTH 18 0
BBX 31 40 -6 -8
BITMAP
00000000
00000000
00000000
00000000
0001fc00
0001fc00
0003f800
0003f800
0000f800
0001f000
0001f000
0001f000
0003e000
0003e000
0003e000
0007c000
0007c000
0007c000
000f8000
000f8000
000f8000
001f0000
001f0000
001f0000
003e0000
003e0000
003e0000
007c0000
01ff0000
01ff0000
03fe0000
03fe0000
00000000
00000000
00000000
00000000
00000000
00000000
00000000
00000000
ENDCHAR
STARTCHAR U+006b
ENCODING 107
SWIDTH 1000 0
DWIDTH 18 0
BBX 31 40 -6 -8
BITMAP
00000000
00000000
00000000
00000000
001f0000
001f0000
003e0000
003e0000
003e0000
007c0000
007c0000
007c0000
00f8f800
00f8f800
00f8f800
01f1f000
01f7c000
01f7c000
03ef8000
03ef8000
03fe0000
07fc0000
07fc0000
07fc0000
0f8f8000
0f8f8000
0f8f8000
1f1e8000
1f01f000
1f01f000
3e03e000
3e03e000
00000000
00000000
00000000
00000000
00000000
00000000
00000000
00000000
ENDCHAR
STARTCHAR U+006a
ENCODING 106
SWIDTH 1000 0
DWIDTH 18 0
BBX 31 40 -6 -8
BITMAP
00000000
00000000
00000000
00000000
000007c0
000007c0
00000f80
00000f80
00000000
00000000
00000000
00000000
00003e00
00003e00
00003e00
00007c00
00007c00
00007c00
0000f800
0000f800
0000f800
0001f000
0001f000
0001f000
0003e000
0003e000
0003e000
0007c000
1f07c000
1f07c000
3e0f8000
3e0f8000
3e0f8000
7c1f0000
7c1f0000
7c1f0000
3ff80000
3ff80000
3ff80000
7ff00000
ENDCHAR
STARTCHAR U+0069
ENCODING 105
SWIDTH 1000 0
DWIDTH 18 0
BBX 31 40 -6 -8
BITMAP
00000000
00000000
00000000
00000000
00007c00
00007c00
0000f800
0000f800
00000000
00000000
00000000
00000000
000fe000
000fe000
000fe000
001fc000
0007c000
0007c000
000f8000
000f8000
000f8000
001f0000
001f0000
001f0000
003e0000
003e0000
003e0000
007c0000
07ffc000
07ffc000
0fff8000
0fff8000
00000000
00000000
00000000
00000000
00000000
00000000
00000000
00000000
ENDCHAR
STARTCHAR U+0068
ENCODING 104
SWIDTH 1000 0
DWIDTH 18 0
BBX 31 40 -6 -8
BITMAP
00000000
00000000
00000000
00000000
001f0000
001f0000
003e0000
003e0000
003e0000
007c0000
007c0000
007c0000
00fffe00
00fffe00
00fffe00
01fffc00
01fc1f00
01fc1f00
03f83e00
03f83e00
03e03e00
07c07c00
07c07c00
07c07c00
0f80f800
0f80f800
0f80f800
1f01f000
1f01f000
1f01f000
3e03e000
3e03e000
00000000
00000000
00000000
00000000
00000000
00000000
00000000
00000000
ENDCHAR
STARTCHAR U+0067
ENCODING 103
SWIDTH 1000 0
DWIDTH 18 0
BBX 31 40 -6 -8
BITMAP
00000000
00000000
00000000
00000000
00000000
00000000
00000000
00000000
00000000
00000000
00000000
00000000
003fff80
003fff80
003fff80
007fff00
01f07c00
01f07c00
03e0f800
03e0f800
00ffe000
01ffc000
01ffc000
01ffc000
0f800000
0f800000
0f800000
1f000000
07ffc000
07ffc000
0fff8000
0fff8000
3e03e000
7c07c000
7c07c000
7c07c000
3ffe0000
3ffe0000
3ffe0000
7ffc0000
ENDCHAR
STARTCHAR U+0066
ENCODING 102
SWIDTH 1000 0
DWIDTH 18 0
BBX 31 40 -6 -8
BITMAP
00000000
00000000
00000000
00000000
00007fc0
00007fc0
0000ff80
0000ff80
0003e3e0
0007c7c0
0007c7c0
0007c7c0
000f8000
000f8000
000f8000
001f0000
01fff000
01fff000
03ffe000
03ffe000
003e0000
007c0000
007c0000
007c0000
00f80000
00f80000
00f80000
01f00000
01f00000
01f00000
03e00000
03e00000
00000000
00000000
00000000
00000000
00000000
00000000
00000000
00000000
ENDCHAR
STARTCHAR U+0065
ENCODING 101
SWIDTH 1000 0
DWIDTH 18 0
BBX 31 40 -6 -8
BITMAP
00000000
00000000
00000000
00000000
00000000
00000000
00000000
00000000
00000000
00000000
00000000
00000000
003ffe00
003ffe00
003ffe00
007ffc00
01f01f00
01f01f00
03e03e00
03e03e00
03fffe00
07fffc00
07fffc00
07fffc00
0f800000
0f800000
0f800000
1f000000
07ffc000
07ffc000
0fff8000
0fff8000
00000000
00000000
00000000
00000000
00000000
00000000
00000000
00000000
ENDCHAR
STARTCHAR U+0064
ENCODING 100
SWIDTH 1000 0
DWIDTH 18 0
BBX 31 40 -6 -8
BITMAP
00000000
00000000
00000000
00000000
000001f0
000001f0
000003e0
000003e0
000003e0
000007c0
000007c0
000007c0
003fff80
003fff80
003fff80
007fff00
01f07f00
01f07f00
03e0fe00
03e0fe00
03e03e00
07c07c00
07c07c00
07c07c00
0f83f800
0f83f800
0f83f800
1f07f000
07fff000
07fff000
0fffe000
0fffe000
00000000
00000000
00000000
00000000
00000000
00000000
00000000
00000000
ENDCHAR
STARTCHAR U+0063
ENCODING 99
SWIDTH 1000 0
DWIDTH 18 0
BBX 31 40 -6 -8
BITMAP
00000000
00000000
00000000
00000000
00000000
00000000
00000000
00000000
00000000
00000000
00000000
00000000
003ffe00
003ffe00
003ffe00
007ffc00
01f01f00
01f01f00
03e03e00
03e03e00
03e00000
07c00000
07c00000
07c00000
0f800000
0f800000
0f800000
1f000000
07fff000
07fff000
0fffe000
0fffe000
00000000
00000000
00000000
00000000
00000000
00000000
00000000
00000000
ENDCHAR
STARTCHAR U+0062
ENCODING 98
SWIDTH 1000 0
DWIDTH 18 0
BBX 31 40 -6 -8
BITMAP
00000000
00000000
00000000
00000000
001f0000
001f0000
003e0000
003e0000
003e0000
007c0000
007c0000
007c0000
00fffe00
00fffe00
00fffe00
01fffc00
01fc1f00
01fc1f00
03f83e00
03f83e00
03e03e00
07c07c00
07c07c00
07c07c00
0fe0f800
0fe0f800
0fe0f800
1fc1f000
1fffc000
1fffc000
3fff8000
3fff8000
00000000
00000000
00000000
00000000
00000000
00000000
00000000
00000000
ENDCHAR
STARTCHAR U+0061
ENCODING 97
SWIDTH 1000 0
DWIDTH 18 0
BBX 31 40 -6 -8
BITMAP
00000000
00000000
00000000
00000000
00000000
00000000
00000000
00000000
00000000
00000000
00000000
00000000
003ffe00
003ffe00
003ffe00
007ffc00
00001f00
00001f00
00003e00
00003e00
00fffe00
01fffc00
01fffc00
01fffc00
0f83f800
0f83f800
0f83f800
1f07f000
07fff000
07fff000
0fffe000
0fffe000
00000000
00000000
00000000
00000000
00000000
00000000
00000000
00000000
ENDCHAR
STARTCHAR U+0060
ENCODING 96
SWIDTH 1000 0
DWIDTH 18 0
BBX 31 40 -6 -8
BITMAP
00000000
00000000
00000000
00000000
0001fc00
0001fc00
0003f800
0003f800
0000f800
0001f000
0001f000
0001f000
0000f800
0000f800
0000f800
0001f000
00000000
00000000
00000000
00000000
00000000
00000000
00000000
00000000
00000000
00000000
00000000
00000000
00000000
00000000
00000000
00000000
00000000
00000000
00000000
00000000
00000000
00000000
00000000
00000000
ENDCHAR
STARTCHAR U+005F
ENCODING 95
SWIDTH 1000 0
DWIDTH 18 0
BBX 31 40 -6 -8
BITMAP
00000000
00000000
00000000
00000000
00000000
00000000
00000000
00000000
00000000
00000000
00000000
00000000
00000000
00000000
00000000
00000000
00000000
00000000
00000000
00000000
00000000
00000000
00000000
00000000
00000000
00000000
00000000
00000000
1ffff000
1ffff000
3fffe000
3fffe000
00000000
00000000
00000000
00000000
00000000
00000000
00000000
00000000
ENDCHAR
STARTCHAR U+005E
ENCODING 94
SWIDTH 1000 0
DWIDTH 18 0
BBX 31 40 -6 -8
BITMAP
00000000
00000000
00000000
00000000
00007c00
00007c00
0000f800
0000f800
0003fe00
0007fc00
0007fc00
0007fc00
003e3e00
003e3e00
003e3e00
007c7c00
01f01f00
01f01f00
03e03e00
03e03e00
00000000
00000000
00000000
00000000
00000000
00000000
00000000
00000000
00000000
00000000
00000000
00000000
00000000
00000000
00000000
00000000
00000000
00000000
00000000
00000000
ENDCHAR
STARTCHAR U+005D
ENCODING 93
SWIDTH 1000 0
DWIDTH 18 0
BBX 31 40 -6 -8
BITMAP
00000000
00000000
00000000
00000000
0007ff00
0007ff00
000ffe00
000ffe00
00003e00
00007c00
00007c00
00007c00
0000f800
0000f800
0000f800
0001f000
0001f000
0001f000
0003e000
0003e000
0003e000
0007c000
0007c000
0007c000
000f8000
000f8000
000f8000
001f0000
07ff0000
07ff0000
0ffe0000
0ffe0000
00000000
00000000
00000000
00000000
00000000
00000000
00000000
00000000
ENDCHAR
STARTCHAR U+005C
ENCODING 92
SWIDTH 1000 0
DWIDTH 18 0
BBX 31 40 -6 -8
BITMAP
00000000
00000000
00000000
00000000
001f0000
001f0000
003e0000
003e0000
000f8000
001f0000
001f0000
001f0000
000f8000
000f8000
000f8000
001f0000
0007c000
0007c000
000f8000
000f8000
0003e000
0007c000
0007c000
0007c000
0003e000
0003e000
0003e000
0007c000
0001f000
0001f000
0003e000
0003e000
00000000
00000000
00000000
00000000
00000000
00000000
00000000
00000000
ENDCHAR
STARTCHAR U+005B
ENCODING 91
SWIDTH 1000 0
DWIDTH 18 0
BBX 31 40 -6 -8
BITMAP
00000000
00000000
00000000
00000000
0001ffc0
0001ffc0
0003ff80
0003ff80
0003e000
0007c000
0007c000
0007c000
000f8000
000f8000
000f8000
001f0000
001f0000
001f0000
003e0000
003e0000
003e0000
007c0000
007c0000
007c0000
00f80000
00f80000
00f80000
01f00000
01ffc000
01ffc000
03ff8000
03ff8000
00000000
00000000
00000000
00000000
00000000
00000000
00000000
00000000
ENDCHAR
STARTCHAR U+005A
ENCODING 90
SWIDTH 1000 0
DWIDTH 18 0
BBX 31 40 -6 -8
BITMAP
00000000
00000000
00000000
00000000
001ffff0
001ffff0
003fffe0
003fffe0
00000f80
00001f00
00001f00
00001f00
0000f800
0000f800
0000f800
0001f000
0007c000
0007c000
000f8000
000f8000
003e0000
007c0000
007c0000
007c0000
03e00000
03e00000
03e00000
07c00000
1ffff000
1ffff000
3fffe000
3fffe000
00000000
00000000
00000000
00000000
00000000
00000000
00000000
00000000
ENDCHAR
STARTCHAR U+0059
ENCODING 89
SWIDTH 1000 0
DWIDTH 18 0
BBX 31 40 -6 -8
BITMAP
00000000
00000000
00000000
00000000
001f01f0
001f01f0
003e03e0
003e03e0
000f8f80
001f1f00
001f1f00
001f1f00
000ff800
000ff800
000ff800
001ff000
0007c000
0007c000
000f8000
000f8000
000f8000
001f0000
001f0000
001f0000
003e0000
003e0000
003e0000
007c0000
007c0000
007c0000
00f80000
00f80000
00000000
00000000
00000000
00000000
00000000
00000000
00000000
00000000
ENDCHAR
STARTCHAR U+0058
ENCODING 88
SWIDTH 1000 0
DWIDTH 18 0
BBX 31 40 -6 -8
BITMAP
00000000
00000000
00000000
00000000
001f01f0
001f01f0
003e03e0
003e03e0
000f8f80
001f1f00
001f1f00
001f1f00
000ff800
000ff800
000ff800
001ff000
0007c000
0007c000
000f8000
000f8000
003fe000
007fc000
007fc000
007fc000
03e3e000
03e3e000
03e3e000
07c7c000
1f01f000
1f01f000
3e03e000
3e03e000
00000000
00000000
00000000
00000000
00000000
00000000
00000000
00000000
ENDCHAR
STARTCHAR U+0057
ENCODING 87
SWIDTH 1000 0
DWIDTH 18 0
BBX 31 40 -6 -8
BITMAP
00000000
00000000
00000000
00000000
001f01f0
001f01f0
003e03e0
003e03e0
003e03e0
007c07c0
007c07c0
007c07c0
00f80f80
00f80f80
00f80f80
01f01f00
01f7df00
01f7df00
03efbe00
03efbe00
03efbe00
07df7c00
07df7c00
07df7c00
0ffff800
0ffff800
0ffff800
1ffff000
07c7c000
07c7c000
0f8f8000
0f8f8000
00000000
00000000
00000000
00000000
00000000
00000000
00000000
00000000
ENDCHAR
STARTCHAR U+0056
ENCODING 86
SWIDTH 1000 0
DWIDTH 18 0
BBX 31 40 -6 -8
BITMAP
00000000
00000000
00000000
00000000
001f01f0
001f01f0
003e03e0
003e03e0
003e03e0
007c07c0
007c07c0
007c07c0
003e3e00
003e3e00
003e3e00
007c7c00
007c7c00
007c7c00
00f8f800
00f8f800
003fe000
007fc000
007fc000
007fc000
00ff8000
00ff8000
00ff8000
01ff0000
007c0000
007c0000
00f80000
00f80000
00000000
00000000
00000000
00000000
00000000
00000000
00000000
00000000
ENDCHAR
STARTCHAR U+0055
ENCODING 85
SWIDTH 1000 0
DWIDTH 18 0
BBX 31 40 -6 -8
BITMAP
00000000
00000000
00000000
00000000
001f01f0
001f01f0
003e03e0
003e03e0
003e03e0
007c07c0
007c07c0
007c07c0
00f80f80
00f80f80
00f80f80
01f01f00
01f01f00
01f01f00
03e03e00
03e03e00
03e03e00
07c07c00
07c07c00
07c07c00
0f80f800
0f80f800
0f80f800
1f01f000
07ffc000
07ffc000
0fff8000
0fff8000
00000000
00000000
00000000
00000000
00000000
00000000
00000000
00000000
ENDCHAR
STARTCHAR U+0054
ENCODING 84
SWIDTH 1000 0
DWIDTH 18 0
BBX 31 40 -6 -8
BITMAP
00000000
00000000
00000000
00000000
001ffff0
001ffff0
003fffe0
003fffe0
0000f800
0001f000
0001f000
0001f000
0003e000
0003e000
0003e000
0007c000
0007c000
0007c000
000f8000
000f8000
000f8000
001f0000
001f0000
001f0000
003e0000
003e0000
003e0000
007c0000
007c0000
007c0000
00f80000
00f80000
00000000
00000000
00000000
00000000
00000000
00000000
00000000
00000000
ENDCHAR
STARTCHAR U+0053
ENCODING 83
SWIDTH 1000 0
DWIDTH 18 0
BBX 31 40 -6 -8
BITMAP
00000000
00000000
00000000
00000000
0007ffc0
0007ffc0
000fff80
000fff80
003e03e0
007c07c0
007c07c0
007c07c0
00f80000
00f80000
00f80000
01f00000
007ffc00
007ffc00
00fff800
00fff800
00003e00
00007c00
00007c00
00007c00
0f80f800
0f80f800
0f80f800
1f01f000
07ffc000
07ffc000
0fff8000
0fff8000
00000000
00000000
00000000
00000000
00000000
00000000
00000000
00000000
ENDCHAR
STARTCHAR U+0052
ENCODING 82
SWIDTH 1000 0
DWIDTH 18 0
BBX 31 40 -6 -8
BITMAP
00000000
00000000
00000000
00000000
001fffc0
001fffc0
003fff80
003fff80
003e03e0
007c07c0
007c07c0
007c07c0
00f80f80
00f80f80
00f80f80
01f01f00
01fffc00
01fffc00
03fff800
03fff800
03e3e000
07c7c000
07c7c000
07c7c000
0f83e000
0f83e000
0f83e000
1f07c000
1f01f000
1f01f000
3e03e000
3e03e000
00000000
00000000
00000000
00000000
00000000
00000000
00000000
00000000
ENDCHAR
STARTCHAR U+0051
ENCODING 81
SWIDTH 1000 0
DWIDTH 18 0
BBX 31 40 -6 -8
BITMAP
00000000
00000000
00000000
00000000
0007ffc0
0007ffc0
000fff80
000fff80
003e03e0
007c07c0
007c07c0
007c07c0
00f80f80
00f80f80
00f80f80
01f01f00
01f01f00
01f01f00
03e03e00
03e03e00
03e3fe00
07c7fc00
07c7fc00
07c7fc00
0f83e000
0f83e000
0f83e000
1f07c000
07fff000
07fff000
0fffe000
0fffe000
00000000
00000000
00000000
00000000
00000000
00000000
00000000
00000000
ENDCHAR
STARTCHAR U+0050
ENCODING 80
SWIDTH 1000 0
DWIDTH 18 0
BBX 31 40 -6 -8
BITMAP
00000000
00000000
00000000
00000000
001fffc0
001fffc0
003fff80
003fff80
003e03e0
007c07c0
007c07c0
007c07c0
00f80f80
00f80f80
00f80f80
01f01f00
01fffc00
01fffc00
03fff800
03fff800
03e00000
07c00000
07c00000
07c00000
0f800000
0f800000
0f800000
1f000000
1f000000
1f000000
3e000000
3e000000
00000000
00000000
00000000
00000000
00000000
00000000
00000000
00000000
ENDCHAR
STARTCHAR U+004F
ENCODING 79
SWIDTH 1000 0
DWIDTH 18 0
BBX 31 40 -6 -8
BITMAP
00000000
00000000
00000000
00000000
0007ffc0
0007ffc0
000fff80
000fff80
003e03e0
007c07c0
007c07c0
007c07c0
00f80f80
00f80f80
00f80f80
01f01f00
01f01f00
01f01f00
03e03e00
03e03e00
03e03e00
07c07c00
07c07c00
07c07c00
0f80f800
0f80f800
0f80f800
1f01f000
07ffc000
07ffc000
0fff8000
0fff8000
00000000
00000000
00000000
00000000
00000000
00000000
00000000
00000000
ENDCHAR
STARTCHAR U+004E
ENCODING 78
SWIDTH 1000 0
DWIDTH 18 0
BBX 31 40 -6 -8
BITMAP
00000000
00000000
00000000
00000000
001f01f0
001f01f0
003e03e0
003e03e0
003f83e0
007f07c0
007f07c0
007f07c0
00ff8f80
00ff8f80
00ff8f80
01ff1f00
01f7df00
01f7df00
03efbe00
03efbe00
03e3fe00
07c7fc00
07c7fc00
07c7fc00
0f83f800
0f83f800
0f83f800
1f07f000
1f01f000
1f01f000
3e03e000
3e03e000
00000000
00000000
00000000
00000000
00000000
00000000
00000000
00000000
ENDCHAR
STARTCHAR U+004D
ENCODING 77
SWIDTH 1000 0
DWIDTH 18 0
BBX 31 40 -6 -8
BITMAP
00000000
00000000
00000000
00000000
001f01f0
001f01f0
003e03e0
003e03e0
003f8fe0
007f1fc0
007f1fc0
007f1fc0
00ffff80
00ffff80
00ffff80
01ffff00
01f7df00
01f7df00
03efbe00
03efbe00
03e03e00
07c07c00
07c07c00
07c07c00
0f80f800
0f80f800
0f80f800
1f01f000
1f01f000
1f01f000
3e03e000
3e03e000
00000000
00000000
00000000
00000000
00000000
00000000
00000000
00000000
ENDCHAR
STARTCHAR U+004C
ENCODING 76
SWIDTH 1000 0
DWIDTH 18 0
BBX 31 40 -6 -8
BITMAP
00000000
00000000
00000000
00000000
001f0000
001f0000
003e0000
003e0000
003e0000
007c0000
007c0000
007c0000
00f80000
00f80000
00f80000
01f00000
01f00000
01f00000
03e00000
03e00000
03e00000
07c00000
07c00000
07c00000
0f800000
0f800000
0f800000
1f000000
1ffff000
1ffff000
3fffe000
3fffe000
00000000
00000000
00000000
00000000
00000000
00000000
00000000
00000000
ENDCHAR
STARTCHAR U+004B
ENCODING 75
SWIDTH 1000 0
DWIDTH 18 0
BBX 31 40 -6 -8
BITMAP
00000000
00000000
00000000
00000000
001f01f0
001f01f0
003e03e0
003e03e0
003e3f80
007c7f00
007c7f00
007c7f00
00ffe000
00ffe000
00ffe000
01ffc000
01fc0000
01fc0000
03f80000
03f80000
03ff8000
07ff0000
07ff0000
07ff0000
0f8fe000
0f8fe000
0f8fe000
1f1fc000
1f01f000
1f01f000
3e03e000
3e03e000
00000000
00000000
00000000
00000000
00000000
00000000
00000000
00000000
ENDCHAR
STARTCHAR U+004A
ENCODING 74
SWIDTH 1000 0
DWIDTH 18 0
BBX 31 40 -6 -8
BITMAP
00000000
00000000
00000000
00000000
00001ff0
00001ff0
00003fe0
00003fe0
00000f80
00001f00
00001f00
00001f00
00003e00
00003e00
00003e00
00007c00
00007c00
00007c00
0000f800
0000f800
0000f800
0001f000
0001f000
0001f000
0f83e000
0f83e000
0f83e000
1f07c000
07ff0000
07ff0000
0ffe0000
0ffe0000
00000000
00000000
00000000
00000000
00000000
00000000
00000000
00000000
ENDCHAR
STARTCHAR U+0049
ENCODING 73
SWIDTH 1000 0
DWIDTH 18 0
BBX 31 40 -6 -8
BITMAP
00000000
00000000
00000000
00000000
0007ffc0
0007ffc0
000fff80
000fff80
0000f800
0001f000
0001f000
0001f000
0003e000
0003e000
0003e000
0007c000
0007c000
0007c000
000f8000
000f8000
000f8000
001f0000
001f0000
001f0000
003e0000
003e0000
003e0000
007c0000
07ffc000
07ffc000
0fff8000
0fff8000
00000000
00000000
00000000
00000000
00000000
00000000
00000000
00000000
ENDCHAR
STARTCHAR U+0048
ENCODING 72
SWIDTH 1000 0
DWIDTH 18 0
BBX 31 40 -6 -8
BITMAP
00000000
00000000
00000000
00000000
001f01f0
001f01f0
003e03e0
003e03e0
003e03e0
007c07c0
007c07c0
007c07c0
00f80f80
00f80f80
00f80f80
01f01f00
01ffff00
01ffff00
03fffe00
03fffe00
03e03e00
07c07c00
07c07c00
07c07c00
0f80f800
0f80f800
0f80f800
1f01f000
1f01f000
1f01f000
3e03e000
3e03e000
00000000
00000000
00000000
00000000
00000000
00000000
00000000
00000000
ENDCHAR
STARTCHAR U+0047
ENCODING 71
SWIDTH 1000 0
DWIDTH 18 0
BBX 31 40 -6 -8
BITMAP
00000000
00000000
00000000
00000000
0001ffc0
0001ffc0
0003ff80
0003ff80
000f83e0
001f07c0
001f07c0
001f07c0
00f80000
00f80000
00f80000
01f00000
01f00000
01f00000
03e00000
03e00000
03e3fe00
07c7fc00
07c7fc00
07c7fc00
03e0f800
03e0f800
03e0f800
07c1f000
01ffc000
01ffc000
03ff8000
03ff8000
00000000
00000000
00000000
00000000
00000000
00000000
00000000
00000000
ENDCHAR
STARTCHAR U+0046
ENCODING 70
SWIDTH 1000 0
DWIDTH 18 0
BBX 31 40 -6 -8
BITMAP
00000000
00000000
00000000
00000000
001ffff0
001ffff0
003fffe0
003fffe0
003e0000
007c0000
007c0000
007c0000
00f80000
00f80000
00f80000
01f00000
01fff000
01fff000
03ffe000
03ffe000
03e00000
07c00000
07c00000
07c00000
0f800000
0f800000
0f800000
1f000000
1f000000
1f000000
3e000000
3e000000
00000000
00000000
00000000
00000000
00000000
00000000
00000000
00000000
ENDCHAR
STARTCHAR U+0045
ENCODING 69
SWIDTH 1000 0
DWIDTH 18 0
BBX 31 40 -6 -8
BITMAP
00000000
00000000
00000000
00000000
001ffff0
001ffff0
003fffe0
003fffe0
003e0000
007c0000
007c0000
007c0000
00f80000
00f80000
00f80000
01f00000
01fff000
01fff000
03ffe000
03ffe000
03e00000
07c00000
07c00000
07c00000
0f800000
0f800000
0f800000
1f000000
1ffff000
1ffff000
3fffe000
3fffe000
00000000
00000000
00000000
00000000
00000000
00000000
00000000
00000000
ENDCHAR
STARTCHAR U+0044
ENCODING 68
SWIDTH 1000 0
DWIDTH 18 0
BBX 31 40 -6 -8
BITMAP
00000000
00000000
00000000
00000000
001fff00
001fff00
003ffe00
003ffe00
000f8f80
001f1f00
001f1f00
001f1f00
003e0f80
003e0f80
003e0f80
007c1f00
007c1f00
007c1f00
00f83e00
00f83e00
00f83e00
01f07c00
01f07c00
01f07c00
03e3e000
03e3e000
03e3e000
07c7c000
1fff0000
1fff0000
3ffe0000
3ffe0000
00000000
00000000
00000000
00000000
00000000
00000000
00000000
00000000
ENDCHAR
STARTCHAR U+0043
ENCODING 67
SWIDTH 1000 0
DWIDTH 18 0
BBX 31 40 -6 -8
BITMAP
00000000
00000000
00000000
00000000
0001ffc0
0001ffc0
0003ff80
0003ff80
000f83e0
001f07c0
001f07c0
001f07c0
00f80000
00f80000
00f80000
01f00000
01f00000
01f00000
03e00000
03e00000
03e00000
07c00000
07c00000
07c00000
03e0f800
03e0f800
03e0f800
07c1f000
01ffc000
01ffc000
03ff8000
03ff8000
00000000
00000000
00000000
00000000
00000000
00000000
00000000
00000000
ENDCHAR
STARTCHAR U+0042
ENCODING 66
SWIDTH 1000 0
DWIDTH 18 0
BBX 31 40 -6 -8
BITMAP
00000000
00000000
00000000
00000000
001fffc0
001fffc0
003fff80
003fff80
000f83e0
001f07c0
001f07c0
001f07c0
003e0f80
003e0f80
003e0f80
007c1f00
007ffc00
007ffc00
00fff800
00fff800
00f83e00
01f07c00
01f07c00
01f07c00
03e0f800
03e0f800
03e0f800
07c1f000
1fffc000
1fffc000
3fff8000
3fff8000
00000000
00000000
00000000
00000000
00000000
00000000
00000000
00000000
ENDCHAR
STARTCHAR U+0041
ENCODING 65
SWIDTH 1000 0
DWIDTH 18 0
BBX 31 40 -6 -8
BITMAP
00000000
00000000
00000000
00000000
00007c00
00007c00
0000f800
0000f800
0003fe00
0007fc00
0007fc00
0007fc00
003e3e00
003e3e00
003e3e00
007c7c00
01f01f00
01f01f00
03e03e00
03e03e00
03fffe00
07fffc00
07fffc00
07fffc00
0f80f800
0f80f800
0f80f800
1f01f000
1f01f000
1f01f000
3e03e000
3e03e000
00000000
00000000
00000000
00000000
00000000
00000000
00000000
00000000
ENDCHAR
STARTCHAR U+0040
ENCODING 64
SWIDTH 1000 0
DWIDTH 18 0
BBX 31 40 -6 -8
BITMAP
00000000
00000000
00000000
00000000
0007ffc0
0007ffc0
000fff80
000fff80
003e03e0
007c07c0
007c07c0
007c07c0
00fbff80
00fbff80
00fbff80
01f7ff00
01ff7f00
01ff7f00
03fefe00
03fefe00
03effe00
07dffc00
07dffc00
07dffc00
0f800000
0f800000
0f800000
1f000000
07ffc000
07ffc000
0fff8000
0fff8000
00000000
00000000
00000000
00000000
00000000
00000000
00000000
00000000
ENDCHAR
STARTCHAR U+003F
ENCODING 63
SWIDTH 1000 0
DWIDTH 18 0
BBX 31 40 -6 -8
BITMAP
00000000
00000000
00000000
00000000
0007ffc0
0007ffc0
000fff80
000fff80
003e03e0
007c07c0
007c07c0
007c07c0
0000fe00
0000fe00
0000fe00
0001fc00
0007c000
0007c000
000f8000
000f8000
000f8000
001f0000
001f0000
001f0000
00000000
00000000
00000000
00000000
007c0000
007c0000
00f80000
00f80000
00000000
00000000
00000000
00000000
00000000
00000000
00000000
00000000
ENDCHAR
STARTCHAR U+003E
ENCODING 62
SWIDTH 1000 0
DWIDTH 18 0
BBX 31 40 -6 -8
BITMAP
00000000
00000000
00000000
00000000
001f0000
001f0000
003e0000
003e0000
0006e000
0007c000
0007c000
0007c000
0000f800
0000f800
0000f800
0001e800
00001f00
00001f00
00003e00
00003e00
0003e000
0007c000
0007c000
000fc000
00f80000
00f80000
01b80000
01f00000
1f000000
1f000000
3e000000
3e000000
00000000
00000000
00000000
00000000
00000000
00000000
00000000
00000000
ENDCHAR
STARTCHAR U+003D
ENCODING 61
SWIDTH 1000 0
DWIDTH 18 0
BBX 31 40 -6 -8
BITMAP
00000000
00000000
00000000
00000000
00000000
00000000
00000000
00000000
00000000
00000000
00000000
00000000
00ffff80
00ffff80
00ffff80
01ffff00
00000000
00000000
00000000
00000000
03fffe00
07fffc00
07fffc00
07fffc00
00000000
00000000
00000000
00000000
00000000
00000000
00000000
00000000
00000000
00000000
00000000
00000000
00000000
00000000
00000000
00000000
ENDCHAR
STARTCHAR U+003C
ENCODING 60
SWIDTH 1000 0
DWIDTH 18 0
BBX 31 40 -6 -8
BITMAP
00000000
00000000
00000000
00000000
000001f0
000001f0
000003e0
000003e0
00003e00
00007c00
00007c00
0000fc00
000f8000
000f8000
001b8000
001f0000
01f00000
01f00000
03e00000
03e00000
006e0000
007c0000
007c0000
007c0000
000f8000
000f8000
000f8000
001e8000
0001f000
0001f000
0003e000
0003e000
00000000
00000000
00000000
00000000
00000000
00000000
00000000
00000000
ENDCHAR
STARTCHAR U+003B
ENCODING 59
SWIDTH 1000 0
DWIDTH 18 0
BBX 31 40 -6 -8
BITMAP
00000000
00000000
00000000
00000000
00000000
00000000
00000000
00000000
0003f800
0007f000
0007f000
0007f000
000fe000
000fe000
000fe000
001fc000
00000000
00000000
00000000
00000000
00000000
00000000
00000000
00000000
00fe0000
00fe0000
00fe0000
01fc0000
01f00000
01f00000
03e00000
03e00000
0f800000
1f000000
1f000000
1f000000
00000000
00000000
00000000
00000000
ENDCHAR
STARTCHAR U+003A
ENCODING 58
SWIDTH 1000 0
DWIDTH 18 0
BBX 31 40 -6 -8
BITMAP
00000000
00000000
00000000
00000000
00000000
00000000
00000000
00000000
0003f800
0007f000
0007f000
0007f000
000fe000
000fe000
000fe000
001fc000
00000000
00000000
00000000
00000000
00000000
00000000
00000000
00000000
00fe0000
00fe0000
00fe0000
01fc0000
01fc0000
01fc0000
03f80000
03f80000
00000000
00000000
00000000
00000000
00000000
00000000
00000000
00000000
ENDCHAR
STARTCHAR U+0039
ENCODING 57
SWIDTH 1000 0
DWIDTH 18 0
BBX 31 40 -6 -8
BITMAP
00000000
00000000
00000000
00000000
0007ffc0
0007ffc0
000fff80
000fff80
003e03e0
007c07c0
007c07c0
007c07c0
00f83f80
00f83f80
00f83f80
01f07f00
007fff00
007fff00
00fffe00
00fffe00
00003e00
00007c00
00007c00
00007c00
0003e000
0003e000
0003e000
0007c000
07ff0000
07ff0000
0ffe0000
0ffe0000
00000000
00000000
00000000
00000000
00000000
00000000
00000000
00000000
ENDCHAR
STARTCHAR U+0038
ENCODING 56
SWIDTH 1000 0
DWIDTH 18 0
BBX 31 40 -6 -8
BITMAP
00000000
00000000
00000000
00000000
0007ffc0
0007ffc0
000fff80
000fff80
003e03e0
007c07c0
007c07c0
007c07c0
00f80f80
00f80f80
00f80f80
01f01f00
007ffc00
007ffc00
00fff800
00fff800
03e03e00
07c07c00
07c07c00
07c07c00
0f80f800
0f80f800
0f80f800
1f01f000
07ffc000
07ffc000
0fff8000
0fff8000
00000000
00000000
00000000
00000000
00000000
00000000
00000000
00000000
ENDCHAR
STARTCHAR U+0037
ENCODING 55
SWIDTH 1000 0
DWIDTH 18 0
BBX 31 40 -6 -8
BITMAP
00000000
00000000
00000000
00000000
001ffff0
001ffff0
003fffe0
003fffe0
000003e0
000007c0
000007c0
000007c0
00003e00
00003e00
00003e00
00007c00
0001f000
0001f000
0003e000
0003e000
000f8000
001f0000
001f0000
001f0000
00f80000
00f80000
00f80000
01f00000
01f00000
01f00000
03e00000
03e00000
00000000
00000000
00000000
00000000
00000000
00000000
00000000
00000000
ENDCHAR
STARTCHAR U+0036
ENCODING 54
SWIDTH 1000 0
DWIDTH 18 0
BBX 31 40 -6 -8
BITMAP
00000000
00000000
00000000
00000000
0001ffc0
0001ffc0
0003ff80
0003ff80
000f8000
001f0000
001f0000
001f0000
00f80000
00f80000
00f80000
01f00000
01fffc00
01fffc00
03fff800
03fff800
03f83e00
07f07c00
07f07c00
07f07c00
0f80f800
0f80f800
0f80f800
1f01f000
07ffc000
07ffc000
0fff8000
0fff8000
00000000
00000000
00000000
00000000
00000000
00000000
00000000
00000000
ENDCHAR
STARTCHAR U+0035
ENCODING 53
SWIDTH 1000 0
DWIDTH 18 0
BBX 31 40 -6 -8
BITMAP
00000000
00000000
00000000
00000000
001ffff0
001ffff0
003fffe0
003fffe0
003e0000
007c0000
007c0000
007c0000
00fffe00
00fffe00
00fffe00
01fffc00
01fc1f00
01fc1f00
03f83e00
03f83e00
00003e00
00007c00
00007c00
00007c00
0f80f800
0f80f800
0f80f800
1f01f000
07ffc000
07ffc000
0fff8000
0fff8000
00000000
00000000
00000000
00000000
00000000
00000000
00000000
00000000
ENDCHAR
STARTCHAR U+0034
ENCODING 52
SWIDTH 1000 0
DWIDTH 18 0
BBX 31 40 -6 -8
BITMAP
00000000
00000000
00000000
00000000
00001f00
00001f00
00003e00
00003e00
0000fe00
0001fc00
0001fc00
0001fc00
000ff800
000ff800
000ff800
001ff000
007df000
007df000
00fbe000
00fbe000
03fffe00
07fffc00
07fffc00
07fffc00
000f8000
000f8000
000f8000
001f0000
001f0000
001f0000
003e0000
003e0000
00000000
00000000
00000000
00000000
00000000
00000000
00000000
00000000
ENDCHAR
STARTCHAR U+0033
ENCODING 51
SWIDTH 1000 0
DWIDTH 18 0
BBX 31 40 -6 -8
BITMAP
00000000
00000000
00000000
00000000
001ffff0
001ffff0
003fffe0
003fffe0
00000f80
00001f00
00001f00
00001f00
0000f800
0000f800
0000f800
0001f000
0007fc00
0007fc00
000ff800
000ff800
00003e00
00007c00
00007c00
00007c00
0f80f800
0f80f800
0f80f800
1f01f000
07ffc000
07ffc000
0fff8000
0fff8000
00000000
00000000
00000000
00000000
00000000
00000000
00000000
00000000
ENDCHAR
STARTCHAR U+0032
ENCODING 50
SWIDTH 1000 0
DWIDTH 18 0
BBX 31 40 -6 -8
BITMAP
00000000
00000000
00000000
00000000
0007ffc0
0007ffc0
000fff80
000fff80
003e03e0
007c07c0
007c07c0
007c07c0
00000f80
00000f80
00000f80
00001f00
0007fc00
0007fc00
000ff800
000ff800
00fe0000
01fc0000
01fc0000
01fc0000
0f800000
0f800000
0f800000
1f000000
1ffff000
1ffff000
3fffe000
3fffe000
00000000
00000000
00000000
00000000
00000000
00000000
00000000
00000000
ENDCHAR
STARTCHAR U+0031
ENCODING 49
SWIDTH 1000 0
DWIDTH 18 0
BBX 31 40 -6 -8
BITMAP
00000000
00000000
00000000
00000000
00007c00
00007c00
0000f800
0000f800
0003f800
0007f000
0007f000
0007f000
003fe000
003fe000
003fe000
007fc000
0007c000
0007c000
000f8000
000f8000
000f8000
001f0000
001f0000
001f0000
003e0000
003e0000
003e0000
007c0000
07ffc000
07ffc000
0fff8000
0fff8000
00000000
00000000
00000000
00000000
00000000
00000000
00000000
00000000
ENDCHAR
STARTCHAR U+0030
ENCODING 48
SWIDTH 1000 0
DWIDTH 18 0
BBX 31 40 -6 -8
BITMAP
00000000
00000000
00000000
00000000
0001ff00
0001ff00
0003fe00
0003fe00
000f8f80
001f1f00
001f1f00
001f1f00
00f80f80
00f80f80
00f80f80
01f01f00
01f01f00
01f01f00
03e03e00
03e03e00
03e03e00
07c07c00
07c07c00
07c07c00
03e3e000
03e3e000
03e3e000
07c7c000
01ff0000
01ff0000
03fe0000
03fe0000
00000000
00000000
00000000
00000000
00000000
00000000
00000000
00000000
ENDCHAR
STARTCHAR U+002F
ENCODING 47
SWIDTH 1000 0
DWIDTH 18 0
BBX 31 40 -6 -8
BITMAP
00000000
00000000
00000000
00000000
000001f0
000001f0
000003e0
000003e0
00000f80
00001f00
00001f00
00001f00
0000f800
0000f800
0000f800
0001f000
0007c000
0007c000
000f8000
000f8000
003e0000
007c0000
007c0000
007c0000
03e00000
03e00000
03e00000
07c00000
1f000000
1f000000
3e000000
3e000000
00000000
00000000
00000000
00000000
00000000
00000000
00000000
00000000
ENDCHAR
STARTCHAR U+002E
ENCODING 46
SWIDTH 1000 0
DWIDTH 18 0
BBX 31 40 -6 -8
BITMAP
00000000
00000000
00000000
00000000
00000000
00000000
00000000
00000000
00000000
00000000
00000000
00000000
00000000
00000000
00000000
00000000
00000000
00000000
00000000
00000000
00000000
00000000
00000000
00000000
00fe0000
00fe0000
00fe0000
01fc0000
01fc0000
01fc0000
03f80000
03f80000
00000000
00000000
00000000
00000000
00000000
00000000
00000000
00000000
ENDCHAR
STARTCHAR U+002D
ENCODING 45
SWIDTH 1000 0
DWIDTH 18 0
BBX 31 40 -6 -8
BITMAP
00000000
00000000
00000000
00000000
00000000
00000000
00000000
00000000
00000000
00000000
00000000
00000000
00000000
00000000
00000000
00000000
01ffff00
01ffff00
03fffe00
03fffe00
00000000
00000000
00000000
00000000
00000000
00000000
00000000
00000000
00000000
00000000
00000000
00000000
00000000
00000000
00000000
00000000
00000000
00000000
00000000
00000000
ENDCHAR
STARTCHAR U+002C
ENCODING 44
SWIDTH 1000 0
DWIDTH 18 0
BBX 31 40 -6 -8
BITMAP
00000000
00000000
00000000
00000000
00000000
00000000
00000000
00000000
00000000
00000000
00000000
00000000
00000000
00000000
00000000
00000000
00000000
00000000
00000000
00000000
00000000
00000000
00000000
00000000
00fe0000
00fe0000
00fe0000
01fc0000
01f00000
01f00000
03e00000
03e00000
0f800000
1f000000
1f000000
1f000000
00000000
00000000
00000000
00000000
ENDCHAR
STARTCHAR U+002B
ENCODING 43
SWIDTH 1000 0
DWIDTH 18 0
BBX 31 40 -6 -8
BITMAP
00000000
00000000
00000000
00000000
00000000
00000000
00000000
00000000
0000f800
0001f000
0001f000
0001f000
0003e000
0003e000
0003e000
0007c000
01ffff00
01ffff00
03fffe00
03fffe00
000f8000
001f0000
001f0000
001f0000
003e0000
003e0000
003e0000
007c0000
00000000
00000000
00000000
00000000
00000000
00000000
00000000
00000000
00000000
00000000
00000000
00000000
ENDCHAR
STARTCHAR U+002A
ENCODING 42
SWIDTH 1000 0
DWIDTH 18 0
BBX 31 40 -6 -8
BITMAP
00000000
00000000
00000000
00000000
00000000
00000000
00000000
00000000
000f8f80
001f1f00
001f1f00
001f1f00
000ff800
000ff800
000ff800
001ff000
01ffff00
01ffff00
03fffe00
03fffe00
003fe000
007fc000
007fc000
007fc000
03e3e000
03e3e000
03e3e000
07c7c000
00000000
00000000
00000000
00000000
00000000
00000000
00000000
00000000
00000000
00000000
00000000
00000000
ENDCHAR
STARTCHAR U+0029
ENCODING 41
SWIDTH 1000 0
DWIDTH 18 0
BBX 31 40 -6 -8
BITMAP
00000000
00000000
00000000
00000000
0001f000
0001f000
0003e000
0003e000
0000f800
0001f000
0001f000
0001f000
0000f800
0000f800
0000f800
0001f000
0001f000
0001f000
0003e000
0003e000
0003e000
0007c000
0007c000
0007c000
003e0000
003e0000
003e0000
007c0000
01f00000
01f00000
03e00000
03e00000
00000000
00000000
00000000
00000000
00000000
00000000
00000000
00000000
ENDCHAR
STARTCHAR U+0028
ENCODING 40
SWIDTH 1000 0
DWIDTH 18 0
BBX 31 40 -6 -8
BITMAP
00000000
00000000
00000000
00000000
00001f00
00001f00
00003e00
00003e00
0000f800
0001f000
0001f000
0001f000
000f8000
000f8000
000f8000
001f0000
001f0000
001f0000
003e0000
003e0000
003e0000
007c0000
007c0000
007c0000
003e0000
003e0000
003e0000
007c0000
001f0000
001f0000
003e0000
003e0000
00000000
00000000
00000000
00000000
00000000
00000000
00000000
00000000
ENDCHAR
STARTCHAR U+0027
ENCODING 39
SWIDTH 1000 0
DWIDTH 18 0
BBX 31 40 -6 -8
BITMAP
00000000
00000000
00000000
00000000
00007f00
00007f00
0000fe00
0000fe00
0000f800
0001f000
0001f000
0001f000
000f8000
000f8000
000f8000
001f0000
00000000
00000000
00000000
00000000
00000000
00000000
00000000
00000000
00000000
00000000
00000000
00000000
00000000
00000000
00000000
00000000
00000000
00000000
00000000
00000000
00000000
00000000
00000000
00000000
ENDCHAR
STARTCHAR U+0026
ENCODING 38
SWIDTH 1000 0
DWIDTH 18 0
BBX 31 40 -6 -8
BITMAP
00000000
00000000
00000000
00000000
0007fc00
0007fc00
000ff800
000ff800
003e3e00
007c7c00
007c7c00
007c7c00
00f8f800
00f8f800
00f8f800
01f1f000
007fc000
007fc000
00ff8000
00ff8000
03e3fe00
07c7fc00
07c7fc00
07c7fc00
0f83e000
0f83e000
0f83e000
1f07c000
07fff000
07fff000
0fffe000
0fffe000
00000000
00000000
00000000
00000000
00000000
00000000
00000000
00000000
ENDCHAR
STARTCHAR U+0025
ENCODING 37
SWIDTH 1000 0
DWIDTH 18 0
BBX 31 40 -6 -8
BITMAP
00000000
00000000
00000000
00000000
0007c1f0
0007c1f0
000f83e0
000f83e0
003fef80
007fdf00
007fdf00
007fdf00
003ef800
003ef800
003ef800
007af000
0007c000
0007c000
000f8000
000f8000
003eb800
007df000
007df000
007df000
03eff800
03eff800
03eff800
07dff000
1f07c000
1f07c000
3e0f8000
3e0f8000
00000000
00000000
00000000
00000000
00000000
00000000
00000000
00000000
ENDCHAR
STARTCHAR U+0024
ENCODING 36
SWIDTH 1000 0
DWIDTH 18 0
BBX 31 40 -6 -8
BITMAP
00000000
00000000
00000000
00000000
00007c00
00007c00
0000f800
0000f800
000fff80
001fff00
001fff00
001fff00
00fbe000
00fbe000
00fbe000
01f7c000
007ffc00
007ffc00
00fff800
00fff800
000fbe00
001f7c00
001f7c00
001f7c00
03ffe000
03ffe000
03ffe000
07ffc000
007c0000
007c0000
00f80000
00f80000
00000000
00000000
00000000
00000000
00000000
00000000
00000000
00000000
ENDCHAR
STARTCHAR U+0023
ENCODING 35
SWIDTH 1000 0
DWIDTH 18 0
BBX 31 40 -6 -8
BITMAP
00000000
00000000
00000000
00000000
0007df00
0007df00
000fbe00
000fbe00
000fbe00
001f7c00
001f7c00
001f7c00
00fffe00
00fffe00
00fffe00
01fffc00
007df000
007df000
00fbe000
00fbe000
03fff800
07fff000
07fff000
07fff000
03ef8000
03ef8000
03ef8000
07df0000
07df0000
07df0000
0fbe0000
0fbe0000
00000000
00000000
00000000
00000000
00000000
00000000
00000000
00000000
ENDCHAR
STARTCHAR U+0022
ENCODING 34
SWIDTH 1000 0
DWIDTH 18 0
BBX 31 40 -6 -8
BITMAP
00000000
00000000
00000000
00000000
0007df00
0007df00
000fbe00
000fbe00
000fbe00
001f7c00
001f7c00
001f7c00
003ef800
003ef800
003ef800
007df000
00000000
00000000
00000000
00000000
00000000
00000000
00000000
00000000
00000000
00000000
00000000
00000000
00000000
00000000
00000000
00000000
00000000
00000000
00000000
00000000
00000000
00000000
00000000
00000000
ENDCHAR
STARTCHAR U+0021
ENCODING 33
SWIDTH 1000 0
DWIDTH 18 0
BBX 31 40 -6 -8
BITMAP
00000000
00000000
00000000
00000000
00007c00
00007c00
0000f800
0000f800
0000f800
0001f000
0001f000
0001f000
0003e000
0003e000
0003e000
0007c000
0007c000
0007c000
000f8000
000f8000
000f8000
001f0000
001f0000
001f0000
00000000
00000000
00000000
00000000
007c0000
007c0000
00f80000
00f80000
00000000
00000000
00000000
00000000
00000000
00000000
00000000
00000000
ENDCHAR
STARTCHAR U+2E2E
ENCODING 11822
SWIDTH 1000 0
DWIDTH 18 0
BBX 31 40 -6 -8
BITMAP
00000000
00000000
00000000
00000000
0007ffc0
0007ffc0
000fff80
000fff80
003e03e0
007c07c0
007c07c0
007c07c0
003f8000
003f8000
003f8000
007f0000
0007c000
0007c000
000f8000
000f8000
000f8000
001f0000
001f0000
001f0000
00000000
00000000
00000000
00000000
007c0000
007c0000
00f80000
00f80000
00000000
00000000
00000000
00000000
00000000
00000000
00000000
00000000
ENDCHAR
STARTCHAR U+00b7
ENCODING 183
SWIDTH 1000 0
DWIDTH 18 0
BBX 31 40 -6 -8
BITMAP
00000000
00000000
00000000
00000000
00000000
00000000
00000000
00000000
00000000
00000000
00000000
00000000
00000000
00000000
00000000
00000000
0007c000
0007c000
000f8000
000f8000
00000000
00000000
00000000
00000000
00000000
00000000
00000000
00000000
00000000
00000000
00000000
00000000
00000000
00000000
00000000
00000000
00000000
00000000
00000000
00000000
ENDCHAR
STARTCHAR U+00A3
ENCODING 163
SWIDTH 1000 0
DWIDTH 18 0
BBX 31 40 -6 -8
BITMAP
00000000
00000000
00000000
00000000
00007fc0
00007fc0
0000ff80
0000ff80
0003e3e0
0007c7c0
0007c7c0
0007c7c0
000f8000
000f8000
000f8000
001f0000
01fff000
01fff000
03ffe000
03ffe000
003e0000
007c0000
007c0000
007c0000
03ff8000
03ff8000
03ff8000
07ff0000
1ff7f000
1ff7f000
3fefe000
3fefe000
0f800000
1f000000
1f000000
1f000000
00000000
00000000
00000000
00000000
ENDCHAR
STARTCHAR U+2260
ENCODING 8800
SWIDTH 1000 0
DWIDTH 18 0
BBX 31 40 -6 -8
BITMAP
00000000
00000000
00000000
00000000
000001f0
000001f0
000003e0
000003e0
00000f80
00001f00
00001f00
00001f00
00ffff80
00ffff80
00ffff80
01ffff00
0007c000
0007c000
000f8000
000f8000
03fffe00
07fffc00
07fffc00
07fffc00
03e00000
03e00000
03e00000
07c00000
1f000000
1f000000
3e000000
3e000000
00000000
00000000
00000000
00000000
00000000
00000000
00000000
00000000
ENDCHAR
STARTCHAR U+03C0
ENCODING 960
SWIDTH 1000 0
DWIDTH 18 0
BBX 31 40 -6 -8
BITMAP
00000000
00000000
00000000
00000000
00000000
00000000
00000000
00000000
00000000
00000000
00000000
00000000
00ffff80
00ffff80
00ffff80
01ffff00
001f7c00
001f7c00
003ef800
003ef800
003ef800
007df000
007df000
007df000
00fbe000
00fbe000
00fbe000
01f7c000
07c7c000
07c7c000
0f8f8000
0f8f8000
00000000
00000000
00000000
00000000
00000000
00000000
00000000
00000000
ENDCHAR
STARTCHAR U+2265
ENCODING 8805
SWIDTH 1000 0
DWIDTH 18 0
BBX 31 40 -6 -8
BITMAP
00000000
00000000
00000000
00000000
001f0000
001f0000
003e0000
003e0000
0006e000
0007c000
0007c000
0007c000
0000f800
0000f800
0000f800
0001e800
00001f00
00001f00
00003e00
00003e00
0003e000
0007c000
0007c000
000fc000
00f80000
00f80000
01b80000
01f00000
1f000000
1f000000
3e000000
3e000000
3fffe000
7fffc000
7fffc000
7fffc000
00000000
00000000
00000000
00000000
ENDCHAR
STARTCHAR U+2264
ENCODING 8804
SWIDTH 1000 0
DWIDTH 18 0
BBX 31 40 -6 -8
BITMAP
00000000
00000000
00000000
00000000
000001f0
000001f0
000003e0
000003e0
00003e00
00007c00
00007c00
0000fc00
000f8000
000f8000
001b8000
001f0000
01f00000
01f00000
03e00000
03e00000
006e0000
007c0000
007c0000
007c0000
000f8000
000f8000
000f8000
001e8000
0001f000
0001f000
0003e000
0003e000
3fffe000
7fffc000
7fffc000
7fffc000
00000000
00000000
00000000
00000000
ENDCHAR
STARTCHAR U+2502
ENCODING 9474
SWIDTH 1000 0
DWIDTH 18 0
BBX 31 40 -6 -8
BITMAP
00003e00
00003e00
00003e00
00007c00
00007c00
00007c00
0000f800
0000f800
0000f800
0001f000
0001f000
0001f000
0003e000
0003e000
0003e000
0007c000
0007c000
0007c000
000f8000
000f8000
000f8000
001f0000
001f0000
001f0000
003e0000
003e0000
003e0000
007c0000
007c0000
007c0000
00f80000
00f80000
00f80000
01f00000
01f00000
01f00000
03e00000
03e00000
03e00000
07c00000
ENDCHAR
STARTCHAR U+252C
ENCODING 9516
SWIDTH 1000 0
DWIDTH 18 0
BBX 31 40 -6 -8
BITMAP
00000000
00000000
00000000
00000000
00000000
00000000
00000000
00000000
00000000
00000000
00000000
00000000
00000000
00000000
00000000
00000000
01ffffc0
01ffffc0
03ffff80
03ffff80
000f8000
001f0000
001f0000
001f0000
003e0000
003e0000
003e0000
007c0000
007c0000
007c0000
00f80000
00f80000
00f80000
01f00000
01f00000
01f00000
03e00000
03e00000
03e00000
07c00000
ENDCHAR
STARTCHAR U+2534
ENCODING 9524
SWIDTH 1000 0
DWIDTH 18 0
BBX 31 40 -6 -8
BITMAP
00003e00
00003e00
00003e00
00007c00
00007c00
00007c00
0000f800
0000f800
0000f800
0001f000
0001f000
0001f000
0003e000
0003e000
0003e000
0007c000
01ffffc0
01ffffc0
03ffff80
03ffff80
00000000
00000000
00000000
00000000
00000000
00000000
00000000
00000000
00000000
00000000
00000000
00000000
00000000
00000000
00000000
00000000
00000000
00000000
00000000
00000000
ENDCHAR
STARTCHAR U+2524
ENCODING 9508
SWIDTH 1000 0
DWIDTH 18 0
BBX 31 40 -6 -8
BITMAP
00003e00
00003e00
00003e00
00007c00
00007c00
00007c00
0000f800
0000f800
0000f800
0001f000
0001f000
0001f000
0003e000
0003e000
0003e000
0007c000
01ffc000
01ffc000
03ff8000
03ff8000
000f8000
001f0000
001f0000
001f0000
003e0000
003e0000
003e0000
007c0000
007c0000
007c0000
00f80000
00f80000
00f80000
01f00000
01f00000
01f00000
03e00000
03e00000
03e00000
07c00000
ENDCHAR
STARTCHAR U+251C
ENCODING 9500
SWIDTH 1000 0
DWIDTH 18 0
BBX 31 40 -6 -8
BITMAP
00003e00
00003e00
00003e00
00007c00
00007c00
00007c00
0000f800
0000f800
0000f800
0001f000
0001f000
0001f000
0003e000
0003e000
0003e000
0007c000
0007ffc0
0007ffc0
000fff80
000fff80
000f8000
001f0000
001f0000
001f0000
003e0000
003e0000
003e0000
007c0000
007c0000
007c0000
00f80000
00f80000
00f80000
01f00000
01f00000
01f00000
03e00000
03e00000
03e00000
07c00000
ENDCHAR
STARTCHAR U+23BD
ENCODING 9149
SWIDTH 1000 0
DWIDTH 18 0
BBX 31 40 -6 -8
BITMAP
00000000
00000000
00000000
00000000
00000000
00000000
00000000
00000000
00000000
00000000
00000000
00000000
00000000
00000000
00000000
00000000
00000000
00000000
00000000
00000000
00000000
00000000
00000000
00000000
00000000
00000000
00000000
00000000
00000000
00000000
00000000
00000000
3ffff800
7ffff000
7ffff000
7ffff000
00000000
00000000
00000000
00000000
ENDCHAR
STARTCHAR U+23BC
ENCODING 9148
SWIDTH 1000 0
DWIDTH 18 0
BBX 31 40 -6 -8
BITMAP
00000000
00000000
00000000
00000000
00000000
00000000
00000000
00000000
00000000
00000000
00000000
00000000
00000000
00000000
00000000
00000000
00000000
00000000
00000000
00000000
00000000
00000000
00000000
00000000
0ffffe00
0ffffe00
0ffffe00
1ffffc00
00000000
00000000
00000000
00000000
00000000
00000000
00000000
00000000
00000000
00000000
00000000
00000000
ENDCHAR
STARTCHAR U+2500
ENCODING 9472
SWIDTH 1000 0
DWIDTH 18 0
BBX 31 40 -6 -8
BITMAP
00000000
00000000
00000000
00000000
00000000
00000000
00000000
00000000
00000000
00000000
00000000
00000000
00000000
00000000
00000000
00000000
01ffffc0
01ffffc0
03ffff80
03ffff80
00000000
00000000
00000000
00000000
00000000
00000000
00000000
00000000
00000000
00000000
00000000
00000000
00000000
00000000
00000000
00000000
00000000
00000000
00000000
00000000
ENDCHAR
STARTCHAR U+23BB
ENCODING 9147
SWIDTH 1000 0
DWIDTH 18 0
BBX 31 40 -6 -8
BITMAP
00000000
00000000
00000000
00000000
00000000
00000000
00000000
00000000
003ffff8
007ffff0
007ffff0
007ffff0
00000000
00000000
00000000
00000000
00000000
00000000
00000000
00000000
00000000
00000000
00000000
00000000
00000000
00000000
00000000
00000000
00000000
00000000
00000000
00000000
00000000
00000000
00000000
00000000
00000000
00000000
00000000
00000000
ENDCHAR
STARTCHAR U+23BA
ENCODING 9146
SWIDTH 1000 0
DWIDTH 18 0
BBX 31 40 -6 -8
BITMAP
000ffffe
000ffffe
000ffffe
001ffffc
00000000
00000000
00000000
00000000
00000000
00000000
00000000
00000000
00000000
00000000
00000000
00000000
00000000
00000000
00000000
00000000
00000000
00000000
00000000
00000000
00000000
00000000
00000000
00000000
00000000
00000000
00000000
00000000
00000000
00000000
00000000
00000000
00000000
00000000
00000000
00000000
ENDCHAR
STARTCHAR U+253C
ENCODING 9532
SWIDTH 1000 0
DWIDTH 18 0
BBX 31 40 -6 -8
BITMAP
00003e00
00003e00
00003e00
00007c00
00007c00
00007c00
0000f800
0000f800
0000f800
0001f000
0001f000
0001f000
0003e000
0003e000
0003e000
0007c000
01ffffc0
01ffffc0
03ffff80
03ffff80
000f8000
001f0000
001f0000
001f0000
003e0000
003e0000
003e0000
007c0000
007c0000
007c0000
00f80000
00f80000
00f80000
01f00000
01f00000
01f00000
03e00000
03e00000
03e00000
07c00000
ENDCHAR
STARTCHAR U+2514
ENCODING 9492
SWIDTH 1000 0
DWIDTH 18 0
BBX 31 40 -6 -8
BITMAP
00003e00
00003e00
00003e00
00007c00
00007c00
00007c00
0000f800
0000f800
0000f800
0001f000
0001f000
0001f000
0003e000
0003e000
0003e000
0007c000
0007ffc0
0007ffc0
000fff80
000fff80
00000000
00000000
00000000
00000000
00000000
00000000
00000000
00000000
00000000
00000000
00000000
00000000
00000000
00000000
00000000
00000000
00000000
00000000
00000000
00000000
ENDCHAR
STARTCHAR U+250C
ENCODING 9484
SWIDTH 1000 0
DWIDTH 18 0
BBX 31 40 -6 -8
BITMAP
00000000
00000000
00000000
00000000
00000000
00000000
00000000
00000000
00000000
00000000
00000000
00000000
00000000
00000000
00000000
00000000
0007ffc0
0007ffc0
000fff80
000fff80
000f8000
001f0000
001f0000
001f0000
003e0000
003e0000
003e0000
007c0000
007c0000
007c0000
00f80000
00f80000
00f80000
01f00000
01f00000
01f00000
03e00000
03e00000
03e00000
07c00000
ENDCHAR
STARTCHAR U+2510
ENCODING 9488
SWIDTH 1000 0
DWIDTH 18 0
BBX 31 40 -6 -8
BITMAP
00000000
00000000
00000000
00000000
00000000
00000000
00000000
00000000
00000000
00000000
00000000
00000000
00000000
00000000
00000000
00000000
01ffc000
01ffc000
03ff8000
03ff8000
000f8000
001f0000
001f0000
001f0000
003e0000
003e0000
003e0000
007c0000
007c0000
007c0000
00f80000
00f80000
00f80000
01f00000
01f00000
01f00000
03e00000
03e00000
03e00000
07c00000
ENDCHAR
STARTCHAR U+2518
ENCODING 9496
SWIDTH 1000 0
DWIDTH 18 0
BBX 31 40 -6 -8
BITMAP
00003e00
00003e00
00003e00
00007c00
00007c00
00007c00
0000f800
0000f800
0000f800
0001f000
0001f000
0001f000
0003e000
0003e000
0003e000
0007c000
01ffc000
01ffc000
03ff8000
03ff8000
00000000
00000000
00000000
00000000
00000000
00000000
00000000
00000000
00000000
00000000
00000000
00000000
00000000
00000000
00000000
00000000
00000000
00000000
00000000
00000000
ENDCHAR
STARTCHAR U+240B
ENCODING 9227
SWIDTH 1000 0
DWIDTH 18 0
BBX 31 40 -6 -8
BITMAP
00000000
00000000
00000000
00000000
001f1f00
001f1f00
003e3e00
003e3e00
003e3e00
007c7c00
007c7c00
007c7c00
003fe000
003fe000
003fe000
007fc000
007fc000
007fc000
00ff8000
00ff8000
003ffe00
007ffc00
007ffc00
007ffc00
000f8000
000f8000
000f8000
001f0000
001f0000
001f0000
003e0000
003e0000
003e0000
007c0000
007c0000
007c0000
00f80000
00f80000
00f80000
01f00000
ENDCHAR
STARTCHAR U+2424
ENCODING 9252
SWIDTH 1000 0
DWIDTH 18 0
BBX 31 40 -6 -8
BITMAP
00000000
00000000
00000000
00000000
001f1f00
001f1f00
003e3e00
003e3e00
003fbe00
007f7c00
007f7c00
007f7c00
00fff800
00fff800
00fff800
01fff000
01f7f000
01f7f000
03efe000
03efe000
03efe000
07dfc000
07dfc000
07dfc000
003e0000
003e0000
003e0000
007c0000
007c0000
007c0000
00f80000
00f80000
00f80000
01f00000
01f00000
01f00000
03ff8000
03ff8000
03ff8000
07ff0000
ENDCHAR
STARTCHAR U+00B1
ENCODING 177
SWIDTH 1000 0
DWIDTH 18 0
BBX 31 40 -6 -8
BITMAP
00000000
00000000
00000000
00000000
00000000
00000000
00000000
00000000
0000f800
0001f000
0001f000
0001f000
0003e000
0003e000
0003e000
0007c000
01ffff00
01ffff00
03fffe00
03fffe00
000f8000
001f0000
001f0000
001f0000
003e0000
003e0000
003e0000
007c0000
1ffff000
1ffff000
3fffe000
3fffe000
00000000
00000000
00000000
00000000
00000000
00000000
00000000
00000000
ENDCHAR
STARTCHAR U+00B0
ENCODING 176
SWIDTH 1000 0
DWIDTH 18 0
BBX 31 40 -6 -8
BITMAP
00000000
00000000
00000000
00000000
0001ff00
0001ff00
0003fe00
0003fe00
000f8f80
001f1f00
001f1f00
001f1f00
000ff800
000ff800
000ff800
001ff000
00000000
00000000
00000000
00000000
00000000
00000000
00000000
00000000
00000000
00000000
00000000
00000000
00000000
00000000
00000000
00000000
00000000
00000000
00000000
00000000
00000000
00000000
00000000
00000000
ENDCHAR
STARTCHAR U+240A
ENCODING 9226
SWIDTH 1000 0
DWIDTH 18 0
BBX 31 40 -6 -8
BITMAP
00000000
00000000
00000000
00000000
001f0000
001f0000
003e0000
003e0000
003e0000
007c0000
007c0000
007c0000
00f80000
00f80000
00f80000
01f00000
01f00000
01f00000
03e00000
03e00000
03fffe00
07fffc00
07fffc00
07fffc00
003e0000
003e0000
003e0000
007c0000
007fc000
007fc000
00ff8000
00ff8000
00f80000
01f00000
01f00000
01f00000
03e00000
03e00000
03e00000
07c00000
ENDCHAR
STARTCHAR U+240D
ENCODING 9229
SWIDTH 1000 0
DWIDTH 18 0
BBX 31 40 -6 -8
BITMAP
00000000
00000000
00000000
00000000
0007fc00
0007fc00
000ff800
000ff800
003e0000
007c0000
007c0000
007c0000
00f80000
00f80000
00f80000
01f00000
01f00000
01f00000
03e00000
03e00000
00fff800
01fff000
01fff000
01fff000
003ef800
003ef800
003ef800
007df000
007fc000
007fc000
00ff8000
00ff8000
00fbe000
01f7c000
01f7c000
01f7c000
03ef8000
03ef8000
03ef8000
07df0000
ENDCHAR
STARTCHAR U+240C
ENCODING 9228
SWIDTH 1000 0
DWIDTH 18 0
BBX 31 40 -6 -8
BITMAP
00000000
00000000
00000000
00000000
001ffc00
001ffc00
003ff800
003ff800
003e0000
007c0000
007c0000
007c0000
00ff8000
00ff8000
00ff8000
01ff0000
01f00000
01f00000
03e00000
03e00000
03effe00
07dffc00
07dffc00
07dffc00
003e0000
003e0000
003e0000
007c0000
007fc000
007fc000
00ff8000
00ff8000
00f80000
01f00000
01f00000
01f00000
03e00000
03e00000
03e00000
07c00000
ENDCHAR
STARTCHAR U+2409
ENCODING 9225
SWIDTH 1000 0
DWIDTH 18 0
BBX 31 40 -6 -8
BITMAP
00000000
00000000
00000000
00000000
001f7c00
001f7c00
003ef800
003ef800
003ef800
007df000
007df000
007df000
00ffe000
00ffe000
00ffe000
01ffc000
01f7c000
01f7c000
03ef8000
03ef8000
03fffe00
07fffc00
07fffc00
07fffc00
000f8000
000f8000
000f8000
001f0000
001f0000
001f0000
003e0000
003e0000
003e0000
007c0000
007c0000
007c0000
00f80000
00f80000
00f80000
01f00000
ENDCHAR
STARTCHAR U+2592
ENCODING 9618
SWIDTH 1000 0
DWIDTH 18 0
BBX 31 40 -6 -8
BITMAP
00000000
00000000
00000000
00000000
001f7df0
001f7df0
003efbe0
003efbe0
000f9b80
001f1f00
001f1f00
001f3f00
00fbef80
00fbef80
00faef80
01f7af00
007c7c00
007c7c00
00f8f800
00f8f800
03ebbe00
07df7c00
07df7c00
07df7c00
03e3e000
03e3e000
03e6e000
07a7c000
1f7df000
1f7df000
3efbe000
3efbe000
00000000
00000000
00000000
00000000
00000000
00000000
00000000
00000000
ENDCHAR
STARTCHAR U+25C6
ENCODING 9670
SWIDTH 1000 0
DWIDTH 18 0
BBX 31 40 -6 -8
BITMAP
00000000
00000000
00000000
00000000
00007c00
00007c00
0000f800
0000f800
0003fe00
0007fc00
0007fc00
0007fc00
003ffe00
003ffe00
003ffe00
007ffc00
01ffff00
01ffff00
03fffe00
03fffe00
00fff800
01fff000
01fff000
01fff000
00ff8000
00ff8000
00ff8000
01ff0000
007c0000
007c0000
00f80000
00f80000
00000000
00000000
00000000
00000000
00000000
00000000
00000000
00000000
ENDCHAR
STARTCHAR U+0020
ENCODING 32
SWIDTH 1000 0
DWIDTH 18 0
BBX 31 40 -6 -8
BITMAP
00000000
00000000
00000000
00000000
00000000
00000000
00000000
00000000
00000000
00000000
00000000
00000000
00000000
00000000
00000000
00000000
00000000
00000000
00000000
00000000
00000000
00000000
00000000
00000000
00000000
00000000
00000000
00000000
00000000
00000000
00000000
00000000
00000000
00000000
00000000
00000000
00000000
00000000
00000000
00000000
ENDCHAR
ENDFONT
